<svg width="73" height="32" viewBox="0 0 73 32" fill="none" xmlns="http://www.w3.org/2000/svg">
<path d="M1.32999 19.2921C0.892544 18.1944 0.649292 17.0006 0.649292 15.7496C0.649292 15.0444 0.726969 14.3535 0.872102 13.6932C1.82467 14.8379 3.26373 15.5697 4.87042 15.5697C4.93378 15.5697 4.99511 15.5657 5.05643 15.5657C5.05643 15.6229 5.05234 15.6883 5.05234 15.7496C5.05234 17.3563 5.78006 18.7933 6.92681 19.7479C6.26656 19.891 5.57769 19.9687 4.87042 19.9687C3.61737 19.9687 2.42155 19.7255 1.32794 19.2921" fill="#248339"/>
<path d="M19.1793 19.2921C19.6147 18.1944 19.8559 17.0006 19.8559 15.7496C19.8559 15.0444 19.7783 14.3535 19.6352 13.6932C18.6826 14.8379 17.2415 15.5697 15.6369 15.5697C15.5735 15.5697 15.5101 15.5657 15.4468 15.5657C15.4529 15.6229 15.4529 15.6883 15.4529 15.7496C15.4529 17.3563 14.7252 18.7933 13.5784 19.7479C14.2387 19.891 14.9316 19.9687 15.6369 19.9687C16.8879 19.9687 18.0816 19.7255 19.1793 19.2921Z" fill="#007AA1"/>
<path d="M5.05442 15.5452C5.05442 15.5615 5.06055 15.5636 5.05442 15.5636C4.99309 15.5636 4.93177 15.5677 4.86636 15.5677C3.26172 15.5677 1.8247 14.8359 0.872131 13.6932C1.13378 12.481 1.62846 11.3568 2.30302 10.3654C2.68118 10.9193 3.11045 11.4324 3.59082 11.8944C3.74209 12.0477 3.91175 12.1805 4.09777 12.2848C4.10185 12.2848 4.10185 12.2848 4.1039 12.2848C4.16318 12.3175 4.22246 12.3502 4.28583 12.3747C4.29196 12.3747 4.294 12.3829 4.30013 12.385C4.35737 12.4136 4.41665 12.4299 4.47593 12.4504C4.48819 12.4545 4.49637 12.4585 4.50659 12.4606C4.56178 12.479 4.62106 12.4953 4.67625 12.5076C4.69056 12.5117 4.70896 12.5178 4.72123 12.5199C4.77642 12.5321 4.8357 12.5383 4.88884 12.5464C4.91133 12.5505 4.92564 12.5526 4.93995 12.5546C5.01967 12.5648 5.09326 12.5669 5.17093 12.5669C5.75147 12.5669 6.27681 12.34 6.66928 11.97C6.66928 11.97 6.67337 11.972 6.67337 11.9741C5.71876 12.8796 5.05442 14.1388 5.05442 15.5452Z" fill="#00B1B7"/>
<path d="M15.4529 15.5452C15.4529 15.5615 15.4468 15.5636 15.4529 15.5636C15.5163 15.5636 15.5735 15.5677 15.6369 15.5677C17.2436 15.5677 18.6826 14.8359 19.6352 13.6932C19.3715 12.481 18.8789 11.3568 18.2023 10.3654C17.8241 10.9193 17.3948 11.4324 16.9165 11.8944H16.9124C16.7673 12.0477 16.5935 12.1805 16.4075 12.2848H16.4034C16.3421 12.3175 16.2828 12.3502 16.2195 12.3747C16.2133 12.3747 16.2113 12.3829 16.2051 12.385C16.1459 12.4136 16.0845 12.4299 16.0253 12.4504C16.0171 12.4545 16.0069 12.4585 15.9987 12.4606C15.9435 12.479 15.8842 12.4953 15.827 12.5076C15.8127 12.5117 15.7984 12.5178 15.7841 12.5199C15.7268 12.5321 15.6696 12.5383 15.6103 12.5464C15.5939 12.5505 15.5776 12.5526 15.5572 12.5546C15.4836 12.5648 15.4079 12.5669 15.3323 12.5669C14.7497 12.5669 14.2264 12.34 13.8319 11.97C13.8319 11.97 13.8278 11.972 13.8278 11.9741C14.7824 12.8796 15.4488 14.1388 15.4488 15.5452" fill="#00B1B7"/>
<path d="M1.32999 1.43866C0.892544 2.53636 0.649292 3.73013 0.649292 4.98318C0.649292 5.6884 0.726969 6.37523 0.872102 7.03957C1.82467 5.89282 3.26373 5.16306 4.87042 5.16306C4.93378 5.16306 4.99511 5.16306 5.05643 5.16715C5.05643 5.10378 5.05234 5.04246 5.05234 4.98114C5.05234 3.37241 5.78006 1.93334 6.92681 0.982821C6.26656 0.837687 5.57769 0.76001 4.87042 0.76001C3.61737 0.76001 2.42155 1.00326 1.32794 1.43662" fill="#737530"/>
<path d="M5.07479 15.5635C5.06048 15.5635 5.0564 15.5635 5.0564 15.5635C5.0564 15.6208 5.05231 15.6862 5.05231 15.7475C5.05231 17.3542 5.78002 18.7912 6.92677 19.7458C8.13281 19.478 9.26321 18.9895 10.2526 18.3149C9.69861 17.9368 9.18553 17.5055 8.72561 17.0251C8.5723 16.8738 8.43738 16.7042 8.33518 16.5161H8.32905C8.29838 16.4548 8.26772 16.3934 8.2391 16.3321C8.23706 16.328 8.23297 16.3219 8.23297 16.3158C8.21049 16.2585 8.18596 16.1993 8.16552 16.1379C8.16143 16.1298 8.15734 16.1195 8.15734 16.1114C8.14099 16.0541 8.12463 15.9969 8.11032 15.9376C8.10624 15.9233 8.10215 15.9131 8.1001 15.8947C8.08579 15.8395 8.07966 15.7802 8.07149 15.725C8.07149 15.7066 8.0674 15.6903 8.06535 15.6739C8.05513 15.6003 8.05309 15.5247 8.05309 15.447C8.05309 14.8624 8.28203 14.3391 8.64589 13.9446C7.74034 14.8971 6.47911 15.5635 5.07479 15.5635Z" fill="#F7AB33"/>
<path d="M5.07479 5.16712C5.06048 5.16712 5.0564 5.16916 5.0564 5.16712C5.0564 5.10375 5.05231 5.04243 5.05231 4.9811C5.05231 3.37237 5.78002 1.93535 6.92677 0.982788C8.13281 1.24852 9.26321 1.74116 10.2526 2.41163C9.69861 2.78775 9.18553 3.21906 8.72561 3.70352C8.5723 3.8507 8.43738 4.02036 8.33518 4.20842L8.32905 4.21455C8.29838 4.27383 8.26772 4.33516 8.2391 4.39239C8.23706 4.40261 8.23297 4.4067 8.23297 4.41079C8.21049 4.46803 8.18596 4.52935 8.16552 4.58659C8.16143 4.59885 8.15734 4.60498 8.15734 4.6152C8.14099 4.67244 8.12463 4.72763 8.11032 4.78895C8.10624 4.80326 8.10215 4.81757 8.1001 4.83188C8.08579 4.88707 8.07966 4.94635 8.07149 5.00154C8.07149 5.0179 8.0674 5.03629 8.06535 5.05469C8.05513 5.12828 8.05309 5.20596 8.05309 5.28159C8.05309 5.86212 8.28203 6.38951 8.64589 6.77993C8.64589 6.77993 8.64589 6.77994 8.64589 6.78198C7.74034 5.83146 6.47911 5.16507 5.07479 5.16507" fill="#F7AB33"/>
<path d="M12.1761 16.5182C12.2088 16.4568 12.2374 16.3955 12.266 16.3342C12.2701 16.3301 12.2701 16.324 12.2742 16.3199C12.2988 16.2606 12.3192 16.2034 12.3417 16.14C12.3458 16.1318 12.3499 16.1216 12.3539 16.1134C12.3703 16.0562 12.3846 15.999 12.3989 15.9417C12.401 15.9233 12.4051 15.9131 12.4091 15.8968C12.4214 15.8416 12.4255 15.7823 12.4357 15.7271C12.4357 15.7107 12.4398 15.6964 12.4418 15.676C12.45 15.6024 12.4562 15.5268 12.4562 15.4491C12.4562 14.2308 11.4688 13.2476 10.2546 13.2476C9.04042 13.2476 8.0531 14.2308 8.0531 15.4491C8.0531 15.5247 8.05515 15.6024 8.06537 15.676C8.06537 15.6903 8.0715 15.6985 8.0715 15.7128C8.07763 15.7761 8.08581 15.8395 8.10012 15.8968C8.10012 15.9111 8.1042 15.9213 8.10625 15.9335C8.1226 15.9928 8.13282 16.0562 8.15735 16.1134C8.15735 16.1216 8.16144 16.1298 8.16348 16.1339C8.18597 16.1972 8.20846 16.2626 8.23298 16.3219C8.23298 16.326 8.23503 16.3281 8.23707 16.3322C8.35359 16.5958 8.51916 16.8309 8.72766 17.0312C9.18759 17.5116 9.70067 17.9409 10.2546 18.319C10.8086 17.9409 11.3217 17.5096 11.7836 17.0292C11.9369 16.882 12.0719 16.7083 12.1782 16.5202" fill="#DF0713"/>
<path d="M12.4418 5.05679C12.4378 5.03839 12.4378 5.01795 12.4337 5.00364C12.4234 4.94845 12.4194 4.88917 12.4071 4.83398C12.403 4.81967 12.3989 4.80536 12.3969 4.79105C12.3826 4.73177 12.3683 4.67453 12.3519 4.6173C12.3499 4.60708 12.3458 4.5989 12.3396 4.58868C12.3192 4.53145 12.2967 4.47012 12.2722 4.41289C12.2701 4.4088 12.2681 4.40471 12.264 4.39449C12.2354 4.33521 12.2068 4.27389 12.1741 4.21665C12.1741 4.21665 12.1741 4.21256 12.1741 4.21052C12.0678 4.02246 11.9349 3.85279 11.7795 3.70562C11.3176 3.21912 10.8045 2.79189 10.2505 2.41577C9.69658 2.78985 9.1835 3.21911 8.72357 3.70153C8.51507 3.9039 8.3495 4.13693 8.23094 4.40471C8.23094 4.40471 8.22889 4.41084 8.22889 4.41289C8.20436 4.47217 8.17984 4.53145 8.15939 4.59481C8.15939 4.60503 8.15326 4.60912 8.15326 4.6173C8.13078 4.67862 8.11851 4.7379 8.10216 4.79923C8.10216 4.81149 8.09807 4.82376 8.09398 4.83398C8.08172 4.89326 8.0715 4.95662 8.06741 5.01999C8.06741 5.03226 8.06128 5.04248 8.06128 5.05883C8.05105 5.13037 8.04901 5.2101 8.04901 5.28573C8.04901 6.50198 9.03428 7.4893 10.2505 7.4893C11.4668 7.4893 12.4521 6.50198 12.4521 5.28573C12.4521 5.21214 12.448 5.13242 12.4378 5.05883" fill="#DF0713"/>
<path d="M19.1793 1.43866C19.6147 2.53636 19.8559 3.73013 19.8559 4.98318C19.8559 5.6884 19.7783 6.37523 19.6352 7.03957C18.6826 5.89282 17.2415 5.16306 15.6369 5.16306C15.5735 5.16306 15.5101 5.16306 15.4468 5.16715C15.4529 5.10378 15.4529 5.04246 15.4529 4.98114C15.4529 3.37241 14.7252 1.93334 13.5784 0.982821C14.2387 0.837687 14.9316 0.76001 15.6369 0.76001C16.8879 0.76001 18.0816 1.00326 19.1793 1.43662" fill="#B06B3C"/>
<path d="M15.4303 15.5635C15.4467 15.5635 15.4467 15.5635 15.4467 15.5635C15.4528 15.6208 15.4528 15.6862 15.4528 15.7475C15.4528 17.3542 14.7272 18.7912 13.5804 19.7458C12.3682 19.478 11.246 18.9895 10.2526 18.3149C10.8065 17.9368 11.3196 17.5055 11.7816 17.0251C11.9349 16.8738 12.0678 16.7042 12.1761 16.5161V16.5141C12.2088 16.4548 12.2374 16.3934 12.266 16.3321C12.2701 16.328 12.2701 16.3219 12.2742 16.3158C12.2987 16.2585 12.3192 16.1993 12.3417 16.1379C12.3458 16.1298 12.3498 16.1195 12.3539 16.1114C12.3703 16.0541 12.3846 15.9969 12.3989 15.9376C12.4009 15.9233 12.4071 15.9131 12.4091 15.8947C12.4214 15.8395 12.4255 15.7802 12.4357 15.725C12.4357 15.7066 12.4398 15.6903 12.4418 15.6739C12.45 15.6003 12.4561 15.5247 12.4561 15.447C12.4561 14.8624 12.2272 14.3391 11.8613 13.9446H11.8633C12.773 14.8971 14.026 15.5635 15.4324 15.5635" fill="#EC6A61"/>
<path d="M15.4303 5.16712C15.4467 5.16712 15.4467 5.16916 15.4467 5.16712C15.4528 5.10375 15.4528 5.04243 15.4528 4.9811C15.4528 3.37237 14.7272 1.93535 13.5804 0.982788C12.3682 1.24852 11.246 1.74116 10.2526 2.41163C10.8065 2.78775 11.3196 3.21906 11.7816 3.70352C11.9349 3.8507 12.0678 4.02036 12.1761 4.20842V4.21455C12.2088 4.27383 12.2374 4.33516 12.266 4.39239C12.2701 4.40261 12.2701 4.4067 12.2742 4.41079C12.2987 4.46803 12.3192 4.52935 12.3417 4.58659C12.3458 4.59885 12.3498 4.60498 12.3539 4.6152C12.3703 4.67244 12.3846 4.72763 12.3989 4.78895C12.4009 4.80326 12.4071 4.81757 12.4091 4.83188C12.4214 4.88707 12.4255 4.94635 12.4357 5.00154C12.4357 5.0179 12.4398 5.03629 12.4418 5.05469C12.45 5.12828 12.4561 5.20596 12.4561 5.28159C12.4561 5.86212 12.2272 6.38951 11.8613 6.77993C11.8613 6.77993 11.8633 6.77994 11.8633 6.78198C12.773 5.83146 14.026 5.16507 15.4324 5.16507" fill="#EC6A61"/>
<path d="M5.05442 5.18752C5.05442 5.17117 5.06055 5.16913 5.05442 5.16913C4.99309 5.16708 4.93177 5.16504 4.86636 5.16504C3.26172 5.16504 1.8247 5.89275 0.872131 7.0395C1.13378 8.24963 1.62846 9.37594 2.30302 10.3673C2.68118 9.81134 3.11045 9.29827 3.59082 8.83629C3.74209 8.68503 3.91175 8.55216 4.09777 8.44586C4.09777 8.44586 4.09981 8.44586 4.1039 8.44586C4.16318 8.41316 4.22246 8.3825 4.28583 8.35797C4.29196 8.35183 4.294 8.34979 4.30013 8.34979C4.35737 8.32322 4.41665 8.30278 4.47593 8.28233C4.48819 8.28233 4.49637 8.27416 4.50659 8.27211C4.56178 8.25372 4.62106 8.24145 4.67625 8.22714C4.69056 8.22305 4.70896 8.21692 4.72123 8.21488C4.77642 8.2067 4.8357 8.19444 4.88884 8.18626C4.91133 8.18626 4.92564 8.18217 4.93995 8.17808C5.01967 8.17195 5.09326 8.16786 5.17093 8.16786C5.75147 8.16786 6.27681 8.39272 6.66928 8.76066L6.67337 8.75657C5.71876 7.85307 5.05442 6.59184 5.05442 5.18957" fill="#93C02F"/>
<path d="M15.4529 5.18752C15.4529 5.17117 15.4468 5.16913 15.4529 5.16913C15.5163 5.16708 15.5735 5.16504 15.6369 5.16504C17.2436 5.16504 18.6826 5.89275 19.6352 7.0395C19.3715 8.24963 18.8789 9.37594 18.2023 10.3673C17.8241 9.81134 17.3948 9.29827 16.9165 8.83629H16.9124C16.7673 8.68503 16.5935 8.55216 16.4075 8.44586H16.4034C16.3421 8.41316 16.2828 8.3825 16.2195 8.35797C16.2133 8.35183 16.2113 8.34979 16.2051 8.34979C16.1459 8.32322 16.0845 8.30278 16.0253 8.28233C16.0171 8.28233 16.0069 8.27416 15.9987 8.27211C15.9435 8.25372 15.8842 8.24145 15.827 8.22714C15.8127 8.22305 15.7984 8.21692 15.7841 8.21488C15.7268 8.2067 15.6696 8.19444 15.6103 8.18626C15.5939 8.18626 15.5776 8.18217 15.5572 8.17808C15.4836 8.17195 15.4079 8.16786 15.3323 8.16786C14.7497 8.16786 14.2264 8.39272 13.8319 8.76066L13.8278 8.75657C14.7824 7.85307 15.4488 6.59184 15.4488 5.18957" fill="#93C02F"/>
<path d="M5.17293 8.16589C5.09526 8.16589 5.01963 8.16998 4.94604 8.17611C4.9256 8.1802 4.91333 8.18429 4.89493 8.18429C4.83565 8.19247 4.78046 8.20269 4.72118 8.21291C4.70892 8.21495 4.69665 8.22109 4.67621 8.22517C4.61898 8.23744 4.56174 8.25175 4.50655 8.27014C4.49837 8.27219 4.4902 8.27628 4.47793 8.28036C4.41865 8.30081 4.35937 8.32329 4.30009 8.34782C4.296 8.34782 4.29192 8.34986 4.28783 8.35395C4.22446 8.37848 4.16313 8.41119 4.10386 8.4439C4.10386 8.4439 4.10249 8.4439 4.09977 8.4439C3.91171 8.55019 3.74205 8.68306 3.59078 8.83637C3.11245 9.2963 2.6791 9.80937 2.30298 10.3654C2.6791 10.9193 3.11041 11.4304 3.59078 11.8944C3.74 12.0477 3.90966 12.1806 4.09977 12.2848H4.10386C4.16313 12.3175 4.22241 12.3502 4.28783 12.3768C4.29192 12.3768 4.29396 12.3829 4.30009 12.385C4.35733 12.4136 4.41865 12.4299 4.47793 12.4504C4.4902 12.4545 4.49837 12.4586 4.50655 12.4606C4.56174 12.479 4.62102 12.4954 4.67621 12.5076C4.69665 12.5117 4.70892 12.5178 4.72118 12.5199C4.77637 12.5322 4.83565 12.5383 4.89085 12.5465C4.91129 12.5505 4.92355 12.5526 4.94399 12.5546C5.01758 12.5649 5.09321 12.5669 5.17089 12.5669C6.3851 12.5669 7.37242 11.5775 7.37242 10.3654C7.37242 9.15321 6.38306 8.16589 5.17089 8.16589" fill="#408737"/>
<path d="M18.2022 10.3653C17.8261 9.81133 17.3948 9.29621 16.9124 8.83628C16.7672 8.68297 16.5935 8.55214 16.4054 8.44381C16.4054 8.44381 16.4041 8.44381 16.4013 8.44381C16.3421 8.4111 16.2828 8.38044 16.2194 8.35591C16.2133 8.34978 16.2092 8.34773 16.2051 8.34773C16.1458 8.32116 16.0845 8.30072 16.0273 8.28027C16.015 8.28027 16.0048 8.2721 15.9966 8.27005C15.9435 8.25166 15.8842 8.23939 15.829 8.22713C15.8126 8.22099 15.7983 8.21691 15.782 8.21282C15.7247 8.20464 15.6695 8.19238 15.6123 8.18829C15.596 8.18625 15.5796 8.18216 15.5592 8.17807C15.4835 8.17194 15.4099 8.16785 15.3364 8.16785C14.1181 8.16785 13.1348 9.15107 13.1348 10.3673C13.1348 11.5836 14.1181 12.5689 15.3364 12.5689C15.412 12.5689 15.4835 12.5689 15.5592 12.5566C15.5796 12.5566 15.5939 12.5525 15.6123 12.5484C15.6695 12.5382 15.7268 12.5341 15.7861 12.5218C15.8004 12.5178 15.8147 12.5137 15.831 12.5096C15.8862 12.4973 15.9455 12.483 16.0007 12.4626C16.0109 12.4626 16.0191 12.4585 16.0293 12.4523C16.0865 12.4299 16.1479 12.4115 16.2072 12.3869C16.2112 12.3869 16.2174 12.3788 16.2215 12.3767C16.2848 12.3501 16.3441 12.3195 16.4034 12.2868H16.4075C16.5935 12.1825 16.7672 12.0496 16.9124 11.8963C17.3948 11.4323 17.8261 10.9213 18.2022 10.3673" fill="#408737"/>
<path d="M31.6035 8.93857C32.6726 8.93857 33.6661 9.36579 34.4081 10.1344C35.0336 10.7865 36.0577 10.8008 36.7016 10.1834C37.3476 9.55794 37.368 8.53588 36.7445 7.88789C35.3872 6.47539 33.5639 5.69658 31.6035 5.69658C27.6686 5.69658 24.4655 8.90178 24.4655 12.8347C24.4655 16.7676 27.6686 19.9687 31.6035 19.9687C33.5639 19.9687 35.3852 19.196 36.7445 17.7815C37.368 17.1355 37.3476 16.1094 36.7016 15.4859C36.0577 14.8665 35.0316 14.8849 34.4081 15.5309C33.6661 16.3036 32.6747 16.7267 31.6035 16.7267C29.4572 16.7267 27.7095 14.979 27.7095 12.8326C27.7095 10.6863 29.4572 8.93857 31.6035 8.93857ZM40.7837 25.5676C40.4587 25.5676 40.2829 25.7515 40.2829 26.0949V26.2707H40.2666C40.0846 25.7965 39.6308 25.5676 39.0932 25.5676C38.1611 25.5676 37.3455 26.2482 37.3455 27.6914C37.3455 28.7584 37.8872 29.7621 39.0605 29.7621C39.5716 29.7621 39.9518 29.5556 40.1603 29.1959H40.1746V30.686C40.1746 31.0499 40.3953 31.24 40.7347 31.24C41.074 31.24 41.2886 31.0519 41.2886 30.686V26.0949C41.2886 25.7515 41.1292 25.5676 40.7837 25.5676ZM39.3406 28.8913C38.6313 28.8913 38.4575 28.1718 38.4575 27.6546C38.4575 26.9984 38.7457 26.4547 39.3406 26.4384C39.9906 26.4384 40.2339 27.0209 40.2339 27.6546C40.2339 28.227 40.0192 28.9015 39.3406 28.8913ZM34.6268 25.5676C33.3288 25.5676 32.552 26.4363 32.552 27.7364C32.552 28.7032 33.1326 29.7601 34.6636 29.7601C35.3259 29.7601 36.3807 29.4453 36.3807 28.7748C36.3807 28.5683 36.1947 28.3394 35.931 28.3394C35.4894 28.3394 35.4894 28.8893 34.6636 28.8893C34.0258 28.8893 33.6497 28.46 33.6497 27.8733H36.1272C36.4931 27.8733 36.6076 27.7773 36.6076 27.393C36.6076 26.4772 35.888 25.5676 34.6268 25.5676ZM33.5639 27.2294C33.6824 26.6918 34.0585 26.3464 34.6064 26.3464C35.0929 26.3464 35.514 26.7225 35.5712 27.2294H33.5639ZM71.9158 16.0256V9.75009C71.9158 7.06206 69.8737 5.8642 66.2863 5.8642C62.4474 5.8642 60.6649 7.80612 60.6649 9.29016C60.6649 10.0608 61.3047 10.7231 62.2532 10.7231C63.7372 10.7231 63.5185 8.76686 66.0144 8.67488C67.2654 8.6299 68.3652 9.1348 68.3652 10.2141C68.3652 11.2934 67.7315 11.5755 66.4743 11.6552C62.5619 11.9066 59.8207 12.755 59.8207 16.0113C59.8207 20.6923 66.5254 21.0684 68.5839 18.0799C68.6166 18.0268 68.6166 17.9961 68.6125 18.0533C68.5471 18.9895 69.4322 20.028 70.6076 19.9687C71.462 19.9298 72.065 19.6682 72.065 19.1531C72.065 18.5623 71.9138 17.5893 71.9138 16.0256H71.9158ZM68.3652 14.472C68.3652 16.1135 67.2715 17.1846 65.6322 17.1846C64.7552 17.1846 63.5553 16.7206 63.5553 15.6494C63.5553 14.5252 64.5508 14.0182 65.9183 13.7893C67.2859 13.5603 67.9563 13.3927 68.3631 13.0146V14.472H68.3652ZM31.7242 25.5655C31.4441 25.5655 30.8636 25.7863 30.7328 26.2544H30.7184V26.0847C30.7184 25.7495 30.4977 25.5655 30.2156 25.5655C29.9335 25.5655 29.7148 25.7495 29.7148 26.0847V29.2C29.7148 29.4984 29.8333 29.758 30.2728 29.758C30.7123 29.758 30.8309 29.4984 30.8309 29.2V27.904C30.8309 26.5262 31.4032 26.6652 31.7242 26.6652C32.0062 26.6652 32.2699 26.5181 32.2699 26.1092C32.2699 25.7965 32.0778 25.5655 31.7262 25.5655H31.7242ZM28.6682 26.7266C28.6682 25.9253 28.057 25.5655 26.99 25.5655C25.8412 25.5655 25.3056 26.1481 25.3056 26.5917C25.3056 26.8186 25.4998 27.0209 25.7798 27.0209C26.2255 27.0209 26.16 26.4343 26.9061 26.4077C27.2761 26.3954 27.6093 26.5467 27.6093 26.8656C27.6093 27.1845 27.4172 27.2724 27.0411 27.2969C25.8718 27.3725 25.0542 27.626 25.0542 28.599C25.0542 29.9972 27.0554 30.1076 27.6706 29.2163C27.6809 29.202 27.6788 29.1898 27.6788 29.2102C27.6604 29.4882 27.9875 29.8071 28.2716 29.7805C28.5414 29.758 28.705 29.6926 28.705 29.5352C28.705 29.3574 28.6641 29.0691 28.6641 28.6031V26.7286L28.6682 26.7266ZM27.6114 28.1391C27.6114 28.6256 27.2843 28.9485 26.7896 28.9485C26.53 28.9485 26.1764 28.8116 26.1764 28.4886C26.1764 28.1656 26.4707 28.0001 26.8755 27.9347C27.2864 27.8652 27.4887 27.8181 27.6114 27.7057V28.1391ZM57.5742 26.7266C57.5742 25.9253 56.965 25.5655 55.896 25.5655C54.7472 25.5655 54.2177 26.1481 54.2177 26.5917C54.2177 26.8186 54.4078 27.0209 54.6879 27.0209C55.1335 27.0209 55.0661 26.4343 55.8101 26.4077C56.1883 26.3954 56.5153 26.5467 56.5153 26.8656C56.5153 27.1845 56.3252 27.2724 55.9512 27.2969C54.784 27.3725 53.9643 27.626 53.9643 28.599C53.9643 29.9972 55.9655 30.1076 56.5808 29.2163C56.591 29.202 56.591 29.1898 56.5889 29.2102C56.5685 29.4882 56.8976 29.8071 57.1817 29.7805C57.4495 29.758 57.6212 29.6926 57.6212 29.5352C57.6212 29.3574 57.5762 29.0691 57.5762 28.6031V26.7286L57.5742 26.7266ZM56.5153 28.1391C56.5153 28.6256 56.1903 28.9485 55.6997 28.9485C55.4381 28.9485 55.0804 28.8116 55.0804 28.4886C55.0804 28.1656 55.3768 28.0001 55.7876 27.9347C56.1944 27.8652 56.3947 27.8181 56.5153 27.7057V28.1391ZM45.4341 25.5655C45.0008 25.5655 44.8781 25.8251 44.8781 26.1236V27.9633C44.8781 28.5193 44.4182 28.8443 44.0278 28.8443C43.5494 28.8443 43.3287 28.5193 43.3287 28.0696V26.1236C43.3287 25.8251 43.206 25.5655 42.7706 25.5655C42.3352 25.5655 42.2146 25.8251 42.2146 26.1236V28.2924C42.2146 29.4207 42.9485 29.758 43.6189 29.758C44.2526 29.758 44.6594 29.4657 44.9721 29.0548H44.9885V29.2C44.9885 29.5352 45.1377 29.758 45.4934 29.758C45.8491 29.758 45.9942 29.5352 45.9942 29.2V26.1236C45.9942 25.8251 45.8716 25.5655 45.4341 25.5655ZM51.6851 25.5655C51.1413 25.5655 50.6896 25.7965 50.5097 26.2687H50.4933V26.0929C50.4933 25.7495 50.3155 25.5655 49.9884 25.5655C49.6614 25.5655 49.4815 25.7495 49.4815 26.0929V30.684C49.4815 31.0479 49.7084 31.238 50.0436 31.238C50.3789 31.238 50.5996 31.0499 50.5996 30.684V29.1938H50.6139C50.8184 29.5536 51.2047 29.7601 51.7116 29.7601C52.8911 29.7601 53.4328 28.7564 53.4328 27.6894C53.4328 26.2462 52.6131 25.5655 51.6851 25.5655ZM51.4316 28.8893C50.7489 28.8974 50.5363 28.2229 50.5363 27.6526C50.5363 27.0189 50.7836 26.4363 51.4316 26.4363C52.0285 26.4527 52.3167 26.9964 52.3167 27.6526C52.3167 28.1697 52.1409 28.8893 51.4316 28.8893ZM47.7665 24.0181C47.4333 24.0181 47.1635 24.2879 47.1635 24.6211C47.1635 24.9543 47.4333 25.2221 47.7665 25.2221C48.0997 25.2221 48.3695 24.9523 48.3695 24.6211C48.3695 24.29 48.0997 24.0181 47.7665 24.0181ZM57.6171 19.0447V7.99009C57.6233 6.88013 57.194 6.01342 55.7018 6.01342C54.2096 6.01342 53.7639 6.85765 53.7639 7.96965V8.00644V19.0202C53.7639 21.7205 52.1286 21.0091 51.914 21.8759C51.6156 23.1003 52.8747 23.55 53.6842 23.5439C56.36 23.5132 57.6171 21.3055 57.6171 19.0447ZM47.7603 25.5676C47.329 25.5676 47.1982 25.8149 47.1982 26.142V26.1501V29.1816C47.1962 29.5086 47.3249 29.7621 47.7603 29.7621C48.1957 29.7621 48.3266 29.5148 48.3266 29.1897V29.1795V26.144C48.3266 25.8231 48.1998 25.5676 47.7624 25.5676H47.7603ZM55.7079 0.76001C54.5755 0.76001 53.6617 1.67578 53.6617 2.80414C53.6617 3.9325 54.5755 4.84827 55.7079 4.84827C56.8404 4.84827 57.752 3.92841 57.752 2.80414C57.752 1.67987 56.8363 0.76001 55.7079 0.76001ZM47.6254 18.0533C47.5559 18.9895 48.4451 20.028 49.6205 19.9687C50.4729 19.9298 51.0759 19.6682 51.0759 19.1531C51.0759 18.5623 50.9267 17.5893 50.9267 16.0256V9.75009C50.9267 7.06206 48.8805 5.8642 45.2992 5.8642C41.4603 5.8642 39.6758 7.80612 39.6758 9.29016C39.6758 10.0608 40.3156 10.7231 41.2661 10.7231C42.7481 10.7231 42.5274 8.76686 45.0233 8.67488C46.2763 8.6299 47.3781 9.1348 47.3781 10.2141C47.3781 11.2934 46.7403 11.5755 45.4873 11.6552C41.5707 11.9066 38.8336 12.755 38.8336 16.0113C38.8336 20.6923 45.5384 21.0684 47.6009 18.0799C47.6357 18.0268 47.6336 17.9961 47.6295 18.0533H47.6254ZM47.376 14.4741C47.376 16.1155 46.2824 17.1866 44.643 17.1866C43.7702 17.1866 42.5683 16.7226 42.5683 15.6515C42.5683 14.5272 43.5597 14.0203 44.9272 13.7913C46.2947 13.5624 46.9652 13.3948 47.376 13.0166V14.4741Z" fill="#002751"/>
</svg>
