<svg width="124" height="24" viewBox="0 0 124 24" fill="none" xmlns="http://www.w3.org/2000/svg">
<g clip-path="url(#clip0_15372_290)">
<path d="M54.6538 21.6113C54.8262 21.6113 54.9462 21.6401 55.0137 21.6949C55.0812 21.7511 55.1142 21.8419 55.1142 21.9645C55.1142 21.9919 55.1112 22.0236 55.1052 22.0611C55.0992 22.0985 55.0917 22.136 55.0797 22.1735H52.0247L52.953 16.7833C53.0085 16.7732 53.0595 16.7675 53.1045 16.7675C53.289 16.7675 53.415 16.8107 53.481 16.8958C53.5484 16.9823 53.5814 17.0976 53.5814 17.2417C53.5814 17.2691 53.5784 17.3037 53.5739 17.347C53.5679 17.3902 53.5619 17.4248 53.5574 17.4522L52.8466 21.6113H54.6538Z" fill="#474749"/>
<path d="M58.5201 21.4109C58.5141 21.4426 58.5096 21.4729 58.5081 21.4988C58.5051 21.5262 58.5036 21.5522 58.5036 21.5796C58.5036 21.6603 58.5201 21.7208 58.5531 21.7612C58.586 21.8016 58.6475 21.8218 58.7375 21.8218C58.7825 21.8218 58.835 21.8131 58.8965 21.7973L58.955 22.1115C58.8875 22.149 58.805 22.1778 58.7075 22.1995C58.61 22.2211 58.5246 22.2312 58.4526 22.2312C58.2516 22.2312 58.0986 22.1908 57.9921 22.1101C57.8857 22.0294 57.8197 21.8982 57.7912 21.7165C57.6622 21.8765 57.5077 22.0121 57.3262 22.1187C57.1448 22.2254 56.9393 22.2802 56.7113 22.2802C56.4999 22.2802 56.3199 22.2456 56.1714 22.175C56.023 22.1058 55.9015 22.0077 55.804 21.8809C55.7065 21.7554 55.6345 21.6084 55.591 21.4426C55.546 21.2768 55.5235 21.0966 55.5235 20.9035C55.5235 20.5978 55.573 20.2908 55.6735 19.9823C55.774 19.6738 55.918 19.3955 56.1039 19.1461C56.2914 18.8967 56.5194 18.6949 56.7893 18.5392C57.0593 18.3835 57.3622 18.3057 57.6982 18.3057C57.8272 18.3057 57.9531 18.3172 58.0791 18.3417C58.2051 18.3662 58.3236 18.3979 58.4346 18.4383C58.5456 18.4787 58.6475 18.5219 58.7405 18.5666C58.832 18.6127 58.9115 18.656 58.979 18.6992L58.5186 21.4109H58.5201ZM57.6577 18.8434C57.4687 18.8434 57.2887 18.8982 57.1178 19.0077C56.9468 19.1173 56.7983 19.2658 56.6708 19.4517C56.5419 19.6392 56.4399 19.8554 56.3649 20.1034C56.2899 20.3513 56.2524 20.6166 56.2524 20.8991C56.2524 21.4426 56.4789 21.7151 56.9303 21.7151C57.0203 21.7151 57.1163 21.6963 57.2183 21.6589C57.3217 21.6214 57.4207 21.5623 57.5152 21.483C57.6097 21.4037 57.6937 21.3013 57.7657 21.1788C57.8377 21.0563 57.8887 20.9092 57.9171 20.7391L58.2186 18.9789C58.1466 18.9356 58.0686 18.9025 57.9876 18.8794C57.9067 18.8564 57.7972 18.8434 57.6577 18.8434Z" fill="#474749"/>
<path d="M63.9507 17.2749C63.6613 17.2749 63.3958 17.3484 63.1558 17.4926C62.9159 17.6382 62.7089 17.8386 62.5364 18.0938C62.364 18.3489 62.229 18.6517 62.1345 19.002C62.04 19.3523 61.992 19.7314 61.992 20.1408C61.992 20.3614 62.0175 20.5676 62.0715 20.7579C62.124 20.9496 62.2035 21.1154 62.31 21.2581C62.4165 21.4008 62.5469 21.5133 62.7029 21.5926C62.8589 21.6733 63.0434 21.7136 63.2548 21.7136C63.5563 21.7136 63.8292 21.6545 64.0752 21.5363C64.3211 21.4181 64.5326 21.2653 64.7111 21.0779L64.8281 21.1903C64.9286 21.2869 64.978 21.3749 64.978 21.4556C64.978 21.5839 64.9196 21.6963 64.8026 21.7915C64.7306 21.8492 64.6451 21.9083 64.5476 21.9659C64.4501 22.0236 64.3361 22.0769 64.2042 22.1245C64.0737 22.1721 63.9237 22.2124 63.7572 22.2442C63.5893 22.2759 63.4003 22.2917 63.1888 22.2917C62.8424 22.2917 62.5454 22.2326 62.298 22.1144C62.049 21.9962 61.8465 21.8376 61.6921 21.6358C61.5361 21.434 61.4206 21.2019 61.3486 20.9352C61.2766 20.6699 61.2391 20.3874 61.2391 20.0861C61.2391 19.6781 61.2976 19.273 61.4146 18.8679C61.5316 18.4628 61.7056 18.0995 61.938 17.778C62.169 17.4566 62.4614 17.1942 62.8124 16.9938C63.1633 16.7934 63.5743 16.6925 64.0422 16.6925C64.2597 16.6925 64.4501 16.7141 64.6106 16.7559C64.7726 16.7977 64.9091 16.8511 65.02 16.9145C65.131 16.9779 65.2225 17.0457 65.2915 17.1163C65.3605 17.187 65.413 17.2547 65.446 17.3196C65.485 17.3888 65.5045 17.4609 65.5045 17.5373C65.5045 17.6022 65.491 17.6642 65.4625 17.7261C65.434 17.7881 65.3845 17.8371 65.3125 17.8746L65.1205 17.9712C64.9915 17.7031 64.8311 17.52 64.6346 17.4205C64.4396 17.321 64.2102 17.272 63.9477 17.272L63.9507 17.2749Z" fill="#474749"/>
<path d="M68.4876 21.4109C68.4816 21.4426 68.4771 21.4729 68.4756 21.4988C68.4726 21.5262 68.4711 21.5522 68.4711 21.5796C68.4711 21.6603 68.4876 21.7208 68.5205 21.7612C68.5535 21.8016 68.615 21.8218 68.705 21.8218C68.75 21.8218 68.8025 21.8131 68.864 21.7973L68.9225 22.1115C68.855 22.149 68.7725 22.1778 68.675 22.1995C68.5775 22.2211 68.4921 22.2312 68.4201 22.2312C68.2191 22.2312 68.0661 22.1908 67.9596 22.1101C67.8532 22.0294 67.7872 21.8982 67.7587 21.7165C67.6297 21.8765 67.4752 22.0121 67.2937 22.1187C67.1123 22.2254 66.9068 22.2802 66.6788 22.2802C66.4674 22.2802 66.2874 22.2456 66.1389 22.175C65.9904 22.1058 65.869 22.0077 65.7715 21.8809C65.674 21.7554 65.602 21.6084 65.5585 21.4426C65.5135 21.2768 65.491 21.0966 65.491 20.9035C65.491 20.5978 65.5405 20.2908 65.641 19.9823C65.7415 19.6738 65.8855 19.3955 66.0714 19.1461C66.2589 18.8967 66.4869 18.6949 66.7568 18.5392C67.0268 18.3835 67.3297 18.3057 67.6657 18.3057C67.7947 18.3057 67.9206 18.3172 68.0466 18.3417C68.1726 18.3662 68.2911 18.3979 68.4021 18.4383C68.513 18.4787 68.615 18.5219 68.708 18.5666C68.7995 18.6127 68.879 18.656 68.9465 18.6992L68.4861 21.4109H68.4876ZM67.6252 18.8434C67.4362 18.8434 67.2562 18.8982 67.0853 19.0077C66.9143 19.1173 66.7658 19.2658 66.6383 19.4517C66.5094 19.6392 66.4074 19.8554 66.3324 20.1034C66.2574 20.3513 66.2199 20.6166 66.2199 20.8991C66.2199 21.4426 66.4464 21.7151 66.8978 21.7151C66.9878 21.7151 67.0838 21.6963 67.1858 21.6589C67.2892 21.6214 67.3882 21.5623 67.4827 21.483C67.5772 21.4037 67.6612 21.3013 67.7332 21.1788C67.8052 21.0563 67.8562 20.9092 67.8847 20.7391L68.1861 18.9789C68.1141 18.9356 68.0361 18.9025 67.9551 18.8794C67.8742 18.8564 67.7647 18.8434 67.6252 18.8434Z" fill="#474749"/>
<path d="M70.1867 22.0856C70.1642 22.2196 70.1402 22.3566 70.1163 22.4964C70.0908 22.6363 70.0593 22.7747 70.0203 22.9102C69.9813 23.0471 69.9333 23.1769 69.8778 23.3009C69.8223 23.4248 69.7518 23.5344 69.6678 23.631C69.5673 23.7434 69.4444 23.8328 69.3004 23.9006C69.1549 23.9669 68.9854 24.0015 68.7905 24.0015C68.6345 24.0015 68.531 23.9712 68.4815 23.9092C68.432 23.8472 68.4065 23.7607 68.4065 23.6483C68.4065 23.6209 68.408 23.5949 68.411 23.5676C68.414 23.5402 68.4185 23.5142 68.423 23.4868H68.5565C68.825 23.4868 69.0229 23.4003 69.1504 23.2288C69.2179 23.138 69.2674 23.0284 69.3019 22.903C69.3349 22.7776 69.3664 22.6435 69.3934 22.5051L70.1043 18.3864C70.1597 18.3763 70.2107 18.3705 70.2542 18.3705C70.4222 18.3705 70.5422 18.4167 70.6142 18.5075C70.6862 18.5983 70.7237 18.7136 70.7237 18.8535C70.7237 18.8809 70.7237 18.9126 70.7192 18.9501C70.7147 18.9875 70.7117 19.0193 70.7072 19.0467L70.1882 22.087L70.1867 22.0856ZM70.5887 17.605C70.4597 17.605 70.3637 17.5647 70.2992 17.4839C70.2347 17.4032 70.2032 17.3095 70.2032 17.2028C70.2032 17.063 70.2467 16.9433 70.3322 16.841C70.4192 16.7386 70.5407 16.6882 70.6967 16.6882C70.8241 16.6882 70.9216 16.73 70.9846 16.8122C71.0491 16.8958 71.0806 16.9909 71.0806 17.0976C71.0806 17.2374 71.0356 17.3556 70.9471 17.4551C70.8571 17.5546 70.7372 17.6036 70.5872 17.6036L70.5887 17.605Z" fill="#474749"/>
<path d="M74.3381 21.4109C74.3321 21.4426 74.3276 21.4729 74.3261 21.4988C74.3231 21.5262 74.3216 21.5522 74.3216 21.5796C74.3216 21.6603 74.3381 21.7208 74.3711 21.7612C74.4041 21.8016 74.4656 21.8218 74.5556 21.8218C74.6006 21.8218 74.6531 21.8131 74.7146 21.7973L74.7731 22.1115C74.7056 22.149 74.6231 22.1778 74.5256 22.1995C74.4281 22.2211 74.3426 22.2312 74.2706 22.2312C74.0697 22.2312 73.9167 22.1908 73.8102 22.1101C73.7037 22.0294 73.6377 21.8982 73.6093 21.7165C73.4803 21.8765 73.3258 22.0121 73.1443 22.1187C72.9629 22.2254 72.7574 22.2802 72.5294 22.2802C72.318 22.2802 72.138 22.2456 71.9895 22.175C71.841 22.1058 71.7196 22.0077 71.6221 21.8809C71.5246 21.7554 71.4526 21.6084 71.4091 21.4426C71.3641 21.2768 71.3416 21.0966 71.3416 20.9035C71.3416 20.5978 71.3911 20.2908 71.4916 19.9823C71.5921 19.6738 71.7361 19.3955 71.922 19.1461C72.1095 18.8967 72.3375 18.6949 72.6074 18.5392C72.8774 18.3835 73.1803 18.3057 73.5163 18.3057C73.6452 18.3057 73.7712 18.3172 73.8972 18.3417C74.0232 18.3662 74.1417 18.3979 74.2527 18.4383C74.3636 18.4787 74.4656 18.5219 74.5586 18.5666C74.6501 18.6127 74.7296 18.656 74.7971 18.6992L74.3366 21.4109H74.3381ZM73.4758 18.8434C73.2868 18.8434 73.1068 18.8982 72.9359 19.0077C72.7649 19.1173 72.6164 19.2658 72.4889 19.4517C72.36 19.6392 72.258 19.8554 72.183 20.1034C72.108 20.3513 72.0705 20.6166 72.0705 20.8991C72.0705 21.4426 72.297 21.7151 72.7484 21.7151C72.8384 21.7151 72.9344 21.6963 73.0363 21.6589C73.1398 21.6214 73.2388 21.5623 73.3333 21.483C73.4278 21.4037 73.5118 21.3013 73.5838 21.1788C73.6557 21.0563 73.7067 20.9092 73.7352 20.7391L74.0367 18.9789C73.9647 18.9356 73.8867 18.9025 73.8057 18.8794C73.7247 18.8549 73.6153 18.8434 73.4758 18.8434Z" fill="#474749"/>
<path d="M79.9951 21.4109C79.9891 21.4427 79.9846 21.4715 79.9831 21.4946C79.9801 21.5191 79.9786 21.5436 79.9786 21.571C79.9786 21.6517 79.9951 21.7137 80.0281 21.7555C80.0611 21.7987 80.1226 21.8204 80.2126 21.8204C80.2576 21.8204 80.3101 21.8117 80.3716 21.7959L80.4301 22.1101C80.3626 22.1476 80.2816 22.1764 80.1826 22.1981C80.0851 22.2197 79.9996 22.2298 79.9276 22.2298C79.7267 22.2298 79.5737 22.1894 79.4672 22.1087C79.3607 22.028 79.2948 21.8968 79.2663 21.7151C79.1208 21.8924 78.9438 22.0308 78.7353 22.1289C78.5269 22.2283 78.3184 22.2774 78.1114 22.2774C77.888 22.2774 77.7005 22.2413 77.546 22.1692C77.3931 22.0971 77.2671 21.9962 77.1696 21.8679C77.0721 21.7396 77.0016 21.5868 76.9611 21.4095C76.9191 21.2322 76.8981 21.0361 76.8981 20.8228C76.8981 20.5229 76.9461 20.2216 77.0451 19.9218C77.1426 19.6219 77.2821 19.3523 77.4635 19.113C77.645 18.8737 77.8685 18.6805 78.1324 18.5292C78.3979 18.3792 78.6978 18.3043 79.0323 18.3043C79.1658 18.3043 79.3038 18.3273 79.4462 18.3735C79.5887 18.4196 79.7012 18.4686 79.7852 18.5219L80.1286 16.4792C80.1841 16.4691 80.2351 16.4633 80.2786 16.4633C80.4571 16.4633 80.5815 16.5066 80.6505 16.5916C80.7195 16.6781 80.7555 16.7906 80.7555 16.929C80.7555 16.9564 80.7525 16.9909 80.7465 17.0328C80.7405 17.076 80.7345 17.1106 80.73 17.138L79.9936 21.4095L79.9951 21.4109ZM79.0158 18.8434C78.8148 18.8434 78.6304 18.8953 78.4639 19.0006C78.2959 19.1044 78.1504 19.2485 78.0245 19.4302C77.8985 19.6118 77.801 19.8237 77.732 20.0645C77.6615 20.3052 77.627 20.5618 77.627 20.8343C77.627 21.1241 77.6825 21.3432 77.795 21.4917C77.906 21.6416 78.0874 21.7166 78.3394 21.7166C78.4294 21.7166 78.5284 21.6978 78.6409 21.6603C78.7518 21.6229 78.8583 21.5638 78.9588 21.4845C79.0593 21.4037 79.1493 21.3028 79.2303 21.1788C79.3113 21.0563 79.3652 20.9093 79.3937 20.7377L79.6862 19.0294C79.6082 18.9703 79.5167 18.9256 79.4147 18.8924C79.3112 18.8607 79.1793 18.8449 79.0173 18.8449L79.0158 18.8434Z" fill="#474749"/>
<path d="M83.8451 21.8607C83.7956 21.9083 83.7341 21.9587 83.6607 22.0092C83.5887 22.0597 83.5002 22.1072 83.3967 22.1505C83.2932 22.1937 83.1717 22.2283 83.0323 22.2557C82.8928 22.2831 82.7338 22.2961 82.5553 22.2961C82.3379 22.2961 82.1369 22.2658 81.9524 22.2038C81.768 22.1418 81.6105 22.0496 81.48 21.927C81.3495 21.803 81.246 21.6459 81.1696 21.4527C81.0946 21.2596 81.0571 21.0318 81.0571 20.7694C81.0571 20.4104 81.1141 20.0789 81.228 19.7761C81.342 19.4734 81.498 19.2125 81.696 18.9962C81.8939 18.7785 82.1234 18.6099 82.3829 18.4888C82.6423 18.3677 82.9168 18.3071 83.2077 18.3071C83.5587 18.3071 83.8286 18.3951 84.0161 18.5681C84.2036 18.7425 84.2966 18.9688 84.2966 19.2485C84.2966 19.5066 84.2306 19.7242 84.1001 19.9044C83.9696 20.0846 83.7986 20.2302 83.5902 20.3427C83.3802 20.4551 83.1492 20.5373 82.8958 20.5878C82.6423 20.6382 82.3919 20.6642 82.1474 20.6642H81.9509C81.8819 20.6642 81.816 20.6613 81.7545 20.657V20.7608C81.7545 21.0938 81.8369 21.3432 82.0019 21.509C82.1669 21.6747 82.3799 21.7584 82.6423 21.7584C82.8598 21.7584 83.0578 21.7137 83.2362 21.6257C83.4147 21.5378 83.5737 21.4095 83.7132 21.2437L83.8226 21.3158C83.8781 21.3533 83.9216 21.3936 83.9516 21.4369C83.9816 21.4801 83.9981 21.5306 83.9981 21.5897C83.9981 21.6762 83.9486 21.767 83.8481 21.8636L83.8451 21.8607ZM82.0619 20.1956C82.2854 20.1956 82.4908 20.174 82.6813 20.1308C82.8703 20.0875 83.0353 20.027 83.1747 19.9491C83.3142 19.8713 83.4237 19.7776 83.5017 19.668C83.5797 19.5584 83.6187 19.433 83.6187 19.2946C83.6187 19.1707 83.5842 19.0654 83.5137 18.9775C83.4432 18.8895 83.3172 18.8449 83.1327 18.8449C82.9648 18.8449 82.8103 18.878 82.6678 18.9458C82.5253 19.0121 82.3979 19.1058 82.2824 19.2269C82.1684 19.348 82.0724 19.4893 81.9929 19.6536C81.9149 19.8179 81.8564 19.9953 81.8174 20.1884C81.8624 20.1942 81.9059 20.1956 81.9464 20.1956H82.0589H82.0619Z" fill="#474749"/>
<path d="M85.5683 21.4109C85.5623 21.4427 85.5578 21.4729 85.5563 21.4989C85.5533 21.5263 85.5518 21.5522 85.5518 21.5796C85.5518 21.6603 85.5683 21.7209 85.6013 21.7613C85.6343 21.8016 85.6958 21.8218 85.7857 21.8218C85.8307 21.8218 85.8832 21.8131 85.9447 21.7973L86.0032 22.1116C85.9357 22.149 85.8532 22.1779 85.7558 22.1995C85.6583 22.2211 85.5728 22.2312 85.5008 22.2312C85.2668 22.2312 85.0944 22.175 84.9864 22.0625C84.8769 21.9501 84.8259 21.8002 84.8319 21.6113C84.8319 21.5839 84.8319 21.5565 84.8364 21.5263C84.8394 21.4974 84.8439 21.4657 84.8484 21.434L85.7018 16.4792C85.7572 16.4691 85.8082 16.4633 85.8517 16.4633C86.0302 16.4633 86.1547 16.5066 86.2237 16.5916C86.2927 16.6781 86.3287 16.7906 86.3287 16.929C86.3287 16.9564 86.3257 16.9909 86.3212 17.0328C86.3152 17.076 86.3092 17.1106 86.3047 17.138L85.5683 21.4095V21.4109Z" fill="#474749"/>
<path d="M89.1678 20.0832L88.8078 22.175H88.1044L89.0253 16.8179C89.2263 16.7905 89.4317 16.7718 89.6402 16.7574C89.8487 16.7444 90.0706 16.7372 90.3061 16.7372C90.6135 16.7372 90.8805 16.7747 91.11 16.8496C91.3379 16.9246 91.5284 17.0255 91.6784 17.1509C91.8298 17.2763 91.9408 17.4248 92.0128 17.5935C92.0848 17.7622 92.1223 17.9438 92.1223 18.137C92.1223 18.4916 92.0623 18.7915 91.9423 19.038C91.8223 19.2845 91.6544 19.4863 91.4399 19.642C91.2254 19.7977 90.972 19.9102 90.6825 19.9794C90.3931 20.0486 90.0796 20.0846 89.7452 20.0846H89.1678V20.0832ZM91.3514 18.1557C91.3514 17.8645 91.2539 17.6454 91.059 17.4984C90.864 17.3499 90.5895 17.2763 90.2386 17.2763C90.1321 17.2763 90.0256 17.2792 89.9161 17.285C89.8067 17.2908 89.7137 17.298 89.6357 17.3095L89.2592 19.5224H89.8622C90.3586 19.5224 90.7305 19.4114 90.9795 19.1908C91.2284 18.9702 91.3514 18.6257 91.3514 18.1572V18.1557Z" fill="#474749"/>
<path d="M94.9838 21.8607C94.9343 21.9083 94.8728 21.9587 94.7993 22.0092C94.7273 22.0597 94.6388 22.1072 94.5354 22.1505C94.4319 22.1937 94.3104 22.2283 94.1709 22.2557C94.0314 22.2831 93.8725 22.2961 93.694 22.2961C93.4765 22.2961 93.2756 22.2658 93.0911 22.2038C92.9066 22.1418 92.7492 22.0496 92.6187 21.927C92.4882 21.803 92.3847 21.6459 92.3082 21.4527C92.2317 21.2596 92.1957 21.0318 92.1957 20.7694C92.1957 20.4104 92.2527 20.0789 92.3667 19.7761C92.4807 19.4734 92.6367 19.2125 92.8346 18.9962C93.0326 18.7785 93.2621 18.6099 93.5215 18.4888C93.781 18.3677 94.0554 18.3071 94.3464 18.3071C94.6973 18.3071 94.9673 18.3951 95.1548 18.5681C95.3422 18.7425 95.4352 18.9688 95.4352 19.2485C95.4352 19.5066 95.3692 19.7242 95.2388 19.9044C95.1083 20.0846 94.9373 20.2302 94.7288 20.3427C94.5189 20.4551 94.2879 20.5373 94.0344 20.5878C93.781 20.6382 93.5305 20.6642 93.2861 20.6642H93.0896C93.0206 20.6642 92.9546 20.6613 92.8931 20.657V20.7608C92.8931 21.0938 92.9756 21.3432 93.1406 21.509C93.3056 21.6747 93.5185 21.7584 93.781 21.7584C93.9985 21.7584 94.1964 21.7137 94.3749 21.6257C94.5534 21.5378 94.7123 21.4095 94.8518 21.2437L94.9613 21.3158C95.0168 21.3533 95.0603 21.3936 95.0903 21.4369C95.1203 21.4801 95.1368 21.5306 95.1368 21.5897C95.1368 21.6762 95.0873 21.767 94.9868 21.8636L94.9838 21.8607ZM93.2006 20.1956C93.424 20.1956 93.6295 20.174 93.82 20.1308C94.0089 20.0875 94.1739 20.027 94.3134 19.9491C94.4529 19.8713 94.5624 19.7776 94.6404 19.668C94.7183 19.5584 94.7573 19.433 94.7573 19.2946C94.7573 19.1707 94.7228 19.0654 94.6524 18.9775C94.5819 18.8895 94.4559 18.8449 94.2714 18.8449C94.1034 18.8449 93.949 18.878 93.8065 18.9458C93.664 19.0121 93.5365 19.1058 93.421 19.2269C93.3071 19.348 93.2111 19.4893 93.1316 19.6536C93.0536 19.8179 92.9951 19.9953 92.9561 20.1884C93.0011 20.1942 93.0446 20.1956 93.0851 20.1956H93.1976H93.2006Z" fill="#474749"/>
<path d="M97.109 18.8694C97.2485 18.7324 97.409 18.6041 97.5904 18.4888C97.7719 18.372 97.9684 18.3143 98.1813 18.3143C98.3598 18.3143 98.5068 18.3547 98.6208 18.4369C98.7347 18.519 98.7917 18.6286 98.7917 18.7656C98.7917 18.8549 98.7692 18.9299 98.7242 18.989C98.6793 19.0481 98.6208 19.0986 98.5488 19.1418L98.4153 19.2225C98.3538 19.0942 98.2818 19.0092 98.2023 18.9688C98.1213 18.9285 98.0329 18.9083 97.9384 18.9083C97.8379 18.9083 97.7359 18.9313 97.6324 18.9775C97.5289 19.0236 97.4345 19.0885 97.3475 19.175C97.2605 19.2615 97.184 19.3638 97.1165 19.4849C97.049 19.606 97.0025 19.7415 96.974 19.8929L96.5721 22.175H95.8612L96.5136 18.3864C96.5691 18.3763 96.6201 18.3706 96.6636 18.3706C96.959 18.3706 97.1075 18.5075 97.1075 18.7829V18.8708L97.109 18.8694Z" fill="#474749"/>
<path d="M101.98 21.4109C101.974 21.4426 101.97 21.4729 101.968 21.4988C101.965 21.5262 101.964 21.5522 101.964 21.5796C101.964 21.6603 101.98 21.7208 102.013 21.7612C102.046 21.8016 102.108 21.8218 102.198 21.8218C102.243 21.8218 102.295 21.8131 102.357 21.7973L102.415 22.1115C102.348 22.149 102.267 22.1778 102.168 22.1995C102.07 22.2211 101.985 22.2312 101.913 22.2312C101.712 22.2312 101.56 22.1908 101.457 22.1101C101.353 22.0294 101.287 21.8982 101.26 21.7165C101.193 21.7973 101.119 21.8722 101.038 21.9414C100.957 22.0106 100.869 22.0712 100.774 22.1231C100.68 22.1735 100.572 22.2153 100.452 22.247C100.332 22.2788 100.197 22.2946 100.045 22.2946C99.6825 22.2946 99.4155 22.1951 99.2416 21.9962C99.0691 21.7973 98.9821 21.5406 98.9821 21.2235C98.9821 21.0462 98.9986 20.8645 99.0331 20.6771L99.426 18.385C99.4815 18.3749 99.5325 18.3691 99.576 18.3691C99.744 18.3691 99.864 18.4152 99.936 18.506C100.008 18.5969 100.045 18.7136 100.045 18.852C100.045 18.8794 100.044 18.9111 100.041 18.9486C100.038 18.9861 100.033 19.0178 100.029 19.0452L99.744 20.6829C99.732 20.7478 99.7245 20.8141 99.7185 20.8847C99.7125 20.9539 99.711 21.0246 99.711 21.0937C99.711 21.2927 99.7575 21.4527 99.849 21.5738C99.9405 21.6949 100.096 21.7554 100.314 21.7554C100.431 21.7554 100.548 21.7309 100.665 21.6834C100.782 21.6344 100.888 21.5652 100.983 21.4743C101.077 21.3835 101.16 21.2754 101.23 21.1514C101.299 21.0274 101.349 20.8876 101.377 20.7319L101.779 18.385C101.835 18.3749 101.886 18.3691 101.931 18.3691C102.097 18.3691 102.217 18.4152 102.291 18.506C102.363 18.5969 102.4 18.7122 102.4 18.852C102.4 18.8794 102.4 18.9111 102.396 18.9486C102.391 18.9861 102.388 19.0178 102.384 19.0452L101.982 21.4109H101.98ZM101.134 17.693C101.028 17.7953 100.906 17.8458 100.767 17.8458C100.705 17.8458 100.644 17.8328 100.582 17.8054C100.521 17.778 100.476 17.7521 100.449 17.7247L101.202 16.8237C101.269 16.743 101.338 16.681 101.412 16.6348C101.484 16.5887 101.577 16.5671 101.688 16.5671C101.766 16.5671 101.842 16.5873 101.919 16.6276C101.994 16.668 102.054 16.7098 102.099 16.7516L101.136 17.693H101.134Z" fill="#474749"/>
<path d="M15.069 6.95301H8.43854C8.15808 6.95301 7.92862 7.15195 7.92862 7.39558V8.3038H15.5789V7.39558C15.5789 7.15195 15.3494 6.95301 15.069 6.95301ZM15.069 6.95301H8.43854C8.15808 6.95301 7.92862 7.15195 7.92862 7.39558V8.3038H15.5789V7.39558C15.5789 7.15195 15.3494 6.95301 15.069 6.95301ZM6.38236 13.5311C6.1559 13.5311 5.97443 13.3552 5.97443 13.139C5.97443 12.9227 6.1574 12.744 6.38236 12.744H25.5133C25.4038 12.509 25.2464 12.3014 25.0484 12.1313C21.9424 9.87948 21.011 7.13609 21.011 4.80356C21.011 3.92417 21.1445 3.1039 21.3425 2.3903C21.35 2.31677 21.3545 2.24181 21.3545 2.1654C21.3545 0.970306 20.3467 -0.00134277 19.1003 -0.00134277H9.08044C4.55865 9.88411e-05 0.857239 3.43979 0.857239 7.64498C0.857239 11.8502 4.55865 15.2884 9.08044 15.2884H23.7931C24.8144 15.2884 25.6468 14.5071 25.6753 13.5297H6.38236V13.5311ZM11.7545 1.18366C12.6754 1.18366 13.4252 1.88141 13.4252 2.73773C13.4252 3.59404 12.6739 4.29323 11.7545 4.29323C10.8352 4.29323 10.0823 3.59549 10.0823 2.73773C10.0823 1.87996 10.8337 1.18366 11.7545 1.18366ZM5.90544 6.29851C5.90544 5.59356 6.55334 5.01836 7.34371 5.01836H16.1653C16.9557 5.01836 17.6036 5.59356 17.6036 6.29851V10.6738C17.6036 11.3788 16.9557 11.9569 16.1653 11.9569H15.5474C15.3029 11.9641 15.102 11.6801 15.291 11.4393C15.4694 11.226 15.5774 10.9607 15.5774 10.6738V10.2644H7.93012V10.6738C7.93012 10.9593 8.0381 11.2274 8.22407 11.448C8.36955 11.6656 8.26157 11.9569 7.91662 11.9569H7.34221C6.55184 11.9569 5.90394 11.3802 5.90394 10.6738V6.29851H5.90544ZM15.5789 7.39558C15.5789 7.15195 15.3494 6.95301 15.069 6.95301H8.43854C8.15808 6.95301 7.92862 7.15195 7.92862 7.39558V8.3038H15.5789V7.39558Z" fill="#FF0000"/>
<path fill-rule="evenodd" clip-rule="evenodd" d="M34.4353 11.8949C34.3693 11.9583 34.2613 12.039 34.1113 12.1342C33.9614 12.2307 33.7604 12.3259 33.5054 12.421C33.2505 12.5162 32.9445 12.5984 32.5846 12.6676C32.2246 12.7368 31.8137 12.7714 31.3488 12.7714C30.4534 12.7714 29.6795 12.633 29.0271 12.3576C28.3747 12.0808 27.8348 11.6959 27.4104 11.2014C26.9845 10.707 26.6725 10.1231 26.473 9.44843C26.2736 8.77376 26.1746 8.03277 26.1746 7.22402C26.1746 6.41528 26.2826 5.66996 26.4985 4.98375C26.7145 4.29899 27.037 3.70648 27.4689 3.20624C27.8993 2.706 28.4392 2.31677 29.0856 2.03421C29.732 1.75309 30.4924 1.61182 31.3668 1.61182C31.7987 1.61182 32.1871 1.6493 32.5366 1.72426C32.8845 1.79923 33.189 1.88572 33.4484 1.98808C33.7079 2.08899 33.9239 2.19567 34.0948 2.30667C34.2658 2.41768 34.3963 2.51138 34.4848 2.58635C34.5853 2.6714 34.6692 2.77232 34.7412 2.88909C34.8132 3.00586 34.8492 3.13416 34.8492 3.27111C34.8492 3.48447 34.7667 3.69639 34.6003 3.90975C34.4338 4.12167 34.2523 4.31917 34.0528 4.49937C33.9209 4.37251 33.7709 4.24132 33.6044 4.10869C33.4379 3.97606 33.2535 3.85929 33.0495 3.75838C32.8455 3.65747 32.6131 3.57241 32.3521 3.50321C32.0927 3.43402 31.8017 3.39942 31.4808 3.39942C30.9168 3.39942 30.4444 3.50754 30.062 3.72667C29.681 3.94435 29.3736 4.22979 29.1411 4.5801C28.9087 4.93041 28.7422 5.33118 28.6432 5.78385C28.5442 6.23507 28.4947 6.69495 28.4947 7.16347C28.4947 7.66371 28.5442 8.14089 28.6432 8.59788C28.7422 9.05487 28.9147 9.45853 29.1576 9.81028C29.4006 10.1606 29.7185 10.4431 30.1115 10.6551C30.5044 10.8684 30.9933 10.9737 31.5797 10.9737C31.8887 10.9737 32.1736 10.9362 32.4346 10.8627C32.6941 10.7877 32.9235 10.6983 33.123 10.5916C33.3225 10.485 33.4964 10.374 33.6449 10.2572C33.7949 10.1404 33.9194 10.0395 34.0183 9.95444C34.0843 10.0294 34.1623 10.1188 34.2508 10.2255C34.3393 10.3321 34.4218 10.4431 34.4998 10.5599C34.5778 10.6767 34.6437 10.7935 34.6992 10.9102C34.7547 11.027 34.7817 11.1337 34.7817 11.2288C34.7817 11.3672 34.7532 11.484 34.6992 11.5791C34.6437 11.6743 34.5553 11.781 34.4338 11.8977L34.4353 11.8949Z" fill="#FF0000"/>
<path fill-rule="evenodd" clip-rule="evenodd" d="M40.1569 8.80113H39.9244C39.8465 8.80113 39.77 8.8069 39.692 8.81699C39.4145 8.83861 39.1416 8.87321 38.8701 8.92079C38.5987 8.96836 38.3587 9.04332 38.1487 9.14424C37.9388 9.24515 37.7678 9.38066 37.6343 9.55077C37.5023 9.72088 37.4348 9.93857 37.4348 10.2038C37.4348 10.5008 37.5233 10.7531 37.7003 10.9607C37.8773 11.1683 38.1757 11.2706 38.5957 11.2706C38.8056 11.2706 39.0051 11.2447 39.1926 11.1913C39.38 11.138 39.5465 11.0688 39.6905 10.9837C39.8345 10.8987 39.9469 10.8064 40.0309 10.7041C40.1134 10.6032 40.1554 10.5109 40.1554 10.4244V8.79825L40.1569 8.80113ZM42.2806 10.6507C42.2806 11.4797 42.408 12.0909 42.6615 12.4845C42.462 12.5594 42.2776 12.6113 42.1066 12.6445C41.9341 12.6762 41.7557 12.6921 41.5682 12.6921C41.1707 12.6921 40.8678 12.6171 40.6638 12.4686C40.4599 12.3201 40.3294 12.1082 40.2739 11.8314C40.0309 12.0765 39.71 12.2826 39.3125 12.4527C38.9136 12.6229 38.4277 12.7079 37.8533 12.7079C37.5548 12.7079 37.2564 12.6675 36.9579 12.5883C36.6595 12.509 36.388 12.3792 36.145 12.1976C35.9021 12.0174 35.7026 11.7752 35.5481 11.4724C35.3937 11.1697 35.3157 10.8007 35.3157 10.3638C35.3157 9.8218 35.4507 9.38066 35.7221 9.04044C35.9936 8.70022 36.3325 8.43208 36.7419 8.23458C37.1499 8.03852 37.5938 7.90301 38.0692 7.82804C38.5447 7.75308 38.9811 7.70551 39.38 7.68532C39.5135 7.67523 39.6425 7.66947 39.77 7.66947H40.1269V7.38258C40.1269 6.97893 40.0129 6.69205 39.7865 6.52194C39.56 6.35183 39.1911 6.26677 38.6826 6.26677C38.2072 6.26677 37.7843 6.34174 37.4138 6.49022C37.0434 6.63871 36.682 6.80882 36.328 7.00056C36.1735 6.82035 36.0491 6.61997 35.9546 6.40229C35.8601 6.1846 35.8136 6.02314 35.8136 5.91646C35.8136 5.77807 35.8991 5.63679 36.0701 5.49407C36.241 5.34991 36.4765 5.22304 36.7749 5.1106C37.0734 4.99959 37.4168 4.90877 37.8038 4.83958C38.1907 4.77038 38.6002 4.73578 39.0321 4.73578C39.629 4.73578 40.1359 4.79344 40.5498 4.91166C40.9653 5.02843 41.3027 5.20863 41.5622 5.4537C41.8216 5.69878 42.0076 6.0044 42.1186 6.37057C42.2281 6.73674 42.2851 7.1649 42.2851 7.65361V10.6507H42.2806Z" fill="#FF0000"/>
<path fill-rule="evenodd" clip-rule="evenodd" d="M46.03 2.40756C46.03 2.74778 45.9115 3.02457 45.6731 3.23649C45.4346 3.44841 45.1512 3.55509 44.8197 3.55509C44.4883 3.55509 44.1883 3.44841 43.9574 3.23649C43.7249 3.02313 43.6094 2.74778 43.6094 2.40756C43.6094 2.06734 43.7249 1.78911 43.9574 1.56998C44.1898 1.3523 44.4763 1.24274 44.8197 1.24274C45.1632 1.24274 45.4361 1.35086 45.6731 1.56998C45.9115 1.78767 46.03 2.06734 46.03 2.40756ZM43.7579 4.95778C43.7579 4.94769 43.8404 4.93327 44.0068 4.91741C44.1733 4.90156 44.3443 4.89435 44.5213 4.89435C44.6982 4.89435 44.8752 4.9102 45.0522 4.94192C45.2291 4.97364 45.3896 5.03562 45.5336 5.12501C45.6776 5.21583 45.7931 5.34269 45.8815 5.50703C45.97 5.67282 46.015 5.88762 46.015 6.15288V12.2437V12.6819C46.015 12.8362 46.009 12.9933 45.9985 13.1519C45.9655 13.7689 45.8486 14.2706 45.6506 14.6584C45.4511 15.0462 45.2142 15.3461 44.9367 15.5594C44.6607 15.7713 44.3698 15.9184 44.0653 15.9977C43.7609 16.077 43.4879 16.1173 43.2435 16.1173C42.756 16.1173 42.4411 15.9876 42.2971 15.7266C42.1531 15.4657 42.0811 15.1183 42.0811 14.6829V14.556C42.4231 14.5344 42.7036 14.4868 42.918 14.4119C43.134 14.3369 43.305 14.2317 43.4324 14.0933C43.5599 13.9549 43.6454 13.7848 43.6889 13.583C43.7324 13.3811 43.7549 13.1418 43.7549 12.865V4.95634L43.7579 4.95778Z" fill="#FF0000"/>
<path fill-rule="evenodd" clip-rule="evenodd" d="M51.8026 8.80113H51.5701C51.4921 8.80113 51.4157 8.8069 51.3377 8.81699C51.0602 8.83861 50.7873 8.87321 50.5158 8.92079C50.2443 8.96836 50.0044 9.04332 49.7944 9.14424C49.5844 9.24515 49.4135 9.38066 49.28 9.55077C49.148 9.72088 49.0805 9.93857 49.0805 10.2038C49.0805 10.5008 49.169 10.7531 49.346 10.9607C49.523 11.1683 49.8214 11.2706 50.2413 11.2706C50.4513 11.2706 50.6508 11.2447 50.8383 11.1913C51.0257 11.138 51.1922 11.0688 51.3362 10.9837C51.4801 10.8987 51.5926 10.8064 51.6766 10.7041C51.7591 10.6032 51.8011 10.5109 51.8011 10.4244V8.79825L51.8026 8.80113ZM53.9263 10.6507C53.9263 11.4797 54.0537 12.0909 54.3072 12.4845C54.1077 12.5594 53.9233 12.6113 53.7523 12.6445C53.5798 12.6762 53.4013 12.6921 53.2139 12.6921C52.8149 12.6921 52.5135 12.6171 52.3095 12.4686C52.1056 12.3201 51.9751 12.1082 51.9196 11.8314C51.6766 12.0765 51.3557 12.2826 50.9582 12.4527C50.5593 12.6229 50.0734 12.7079 49.499 12.7079C49.2005 12.7079 48.9021 12.6675 48.6036 12.5883C48.3051 12.509 48.0337 12.3792 47.7907 12.1976C47.5478 12.0174 47.3483 11.7752 47.1938 11.4724C47.0394 11.1697 46.9614 10.8007 46.9614 10.3638C46.9614 9.8218 47.0963 9.38066 47.3678 9.04044C47.6393 8.70022 47.9782 8.43208 48.3876 8.23458C48.7971 8.03852 49.2395 7.90301 49.7149 7.82804C50.1904 7.75308 50.6268 7.70551 51.0257 7.68532C51.1592 7.67523 51.2882 7.66947 51.4157 7.66947H51.7726V7.38258C51.7726 6.97893 51.6586 6.69205 51.4322 6.52194C51.2057 6.35183 50.8382 6.26677 50.3283 6.26677C49.8529 6.26677 49.43 6.34174 49.0595 6.49022C48.6891 6.63871 48.3261 6.80882 47.9737 7.00056C47.8192 6.82035 47.6948 6.61997 47.6003 6.40229C47.5058 6.1846 47.4593 6.02314 47.4593 5.91646C47.4593 5.77807 47.5448 5.63679 47.7157 5.49407C47.8867 5.34991 48.1222 5.22304 48.4206 5.1106C48.7191 4.99959 49.0625 4.90877 49.4495 4.83958C49.8364 4.77038 50.2458 4.73578 50.6778 4.73578C51.2747 4.73578 51.7816 4.79344 52.1955 4.91166C52.611 5.02843 52.9469 5.20863 53.2079 5.4537C53.4673 5.69878 53.6533 6.0044 53.7643 6.37057C53.8738 6.73674 53.9293 7.1649 53.9293 7.65361V10.6507H53.9263Z" fill="#FF0000"/>
<path fill-rule="evenodd" clip-rule="evenodd" d="M60.8088 6.15432H64.9886V1.83381L65.2706 1.80209C65.359 1.792 65.4505 1.78047 65.545 1.77037C65.6395 1.76028 65.7295 1.75452 65.818 1.75452C65.9619 1.75452 66.1194 1.77037 66.2904 1.80209C66.4614 1.83381 66.6188 1.89579 66.7628 1.98517C66.9068 2.076 67.0253 2.19998 67.1198 2.35999C67.2142 2.52001 67.2607 2.73193 67.2607 2.99719V12.5003H64.9886V7.87705H60.8088V12.5003H58.5366V1.83381L58.8351 1.80209C58.9236 1.792 59.009 1.78047 59.0915 1.77037C59.174 1.76028 59.255 1.75452 59.3315 1.75452C59.498 1.75452 59.6659 1.77037 59.8369 1.80209C60.0079 1.83381 60.1654 1.89579 60.3093 1.98517C60.4533 2.076 60.5718 2.19998 60.6663 2.35999C60.7608 2.52001 60.8073 2.73193 60.8073 2.99719V6.15432H60.8088Z" fill="#FF0000"/>
<path fill-rule="evenodd" clip-rule="evenodd" d="M73.6469 4.94192C73.6589 4.94192 73.7474 4.93471 73.9124 4.91741C74.0788 4.90156 74.2378 4.89435 74.3938 4.89435C74.5813 4.89435 74.7672 4.91597 74.9487 4.95778C75.1317 5.00103 75.2921 5.07023 75.4301 5.16537C75.5681 5.26052 75.6821 5.39171 75.7706 5.55605C75.8591 5.72039 75.9025 5.93087 75.9025 6.18603V12.5003H74.3938C74.1178 12.5003 73.9424 12.4282 73.8719 12.2855C73.7999 12.1413 73.7639 11.9323 73.7639 11.6555C73.5749 11.9006 73.2885 12.1255 72.9015 12.3331C72.5146 12.5407 71.9897 12.6445 71.3253 12.6445C70.5394 12.6445 69.959 12.496 69.584 12.1976C69.2076 11.9006 68.9646 11.507 68.8537 11.0183C68.7982 10.7733 68.7622 10.508 68.7457 10.2211C68.7292 9.93423 68.7202 9.65312 68.7202 9.37633V4.94336C68.8297 4.94336 68.9137 4.9376 68.9691 4.92751C69.0471 4.91741 69.1266 4.90876 69.2106 4.903C69.2931 4.89723 69.3741 4.89579 69.4506 4.89579C69.893 4.89579 70.2574 4.98661 70.5454 5.16681C70.8334 5.34846 70.9773 5.67138 70.9773 6.1399V9.28118C70.9773 9.52626 70.9848 9.74682 71.0013 9.94288C71.0178 10.1389 71.0613 10.3091 71.1333 10.4532C71.2053 10.5959 71.3208 10.7084 71.4812 10.7877C71.6417 10.867 71.8652 10.9073 72.1531 10.9073C72.5626 10.9073 72.9135 10.8251 73.206 10.6608C73.4984 10.4965 73.6454 10.2918 73.6454 10.0467V4.9448L73.6469 4.94192Z" fill="#FF0000"/>
<path fill-rule="evenodd" clip-rule="evenodd" d="M81.6916 8.80113H81.4591C81.3811 8.80113 81.3031 8.8069 81.2267 8.81699C80.9492 8.83861 80.6762 8.87321 80.4048 8.92079C80.1333 8.96836 79.8934 9.04332 79.6834 9.14424C79.4734 9.24515 79.3025 9.38066 79.169 9.55077C79.037 9.72088 78.9695 9.93857 78.9695 10.2038C78.9695 10.5008 79.058 10.7531 79.235 10.9607C79.4119 11.1683 79.7104 11.2706 80.1303 11.2706C80.3403 11.2706 80.5398 11.2447 80.7272 11.1913C80.9147 11.138 81.0812 11.0688 81.2252 10.9837C81.3691 10.8987 81.4816 10.8064 81.5656 10.7041C81.6481 10.6032 81.6901 10.5109 81.6901 10.4244V8.79825L81.6916 8.80113ZM83.8152 10.6507C83.8152 11.4797 83.9427 12.0909 84.1962 12.4845C83.9982 12.5594 83.8122 12.6113 83.6413 12.6445C83.4688 12.6762 83.2903 12.6921 83.1029 12.6921C82.7039 12.6921 82.4025 12.6171 82.1985 12.4686C81.9945 12.3201 81.8641 12.1082 81.8086 11.8314C81.5656 12.0765 81.2447 12.2826 80.8457 12.4527C80.4468 12.6229 79.9609 12.7079 79.3864 12.7079C79.088 12.7079 78.7895 12.6675 78.4911 12.5883C78.1926 12.509 77.9212 12.3792 77.6782 12.1976C77.4352 12.0174 77.2358 11.7752 77.0813 11.4724C76.9268 11.1697 76.8488 10.8007 76.8488 10.3638C76.8488 9.8218 76.9838 9.38066 77.2553 9.04044C77.5267 8.70022 77.8657 8.43208 78.2751 8.23458C78.6831 8.03852 79.127 7.90301 79.6024 7.82804C80.0778 7.75308 80.5143 7.70551 80.9132 7.68532C81.0467 7.67523 81.1757 7.66947 81.3031 7.66947H81.6601V7.38258C81.6601 6.97893 81.5461 6.69205 81.3196 6.52194C81.0932 6.35183 80.7242 6.26677 80.2158 6.26677C79.7404 6.26677 79.3175 6.34174 78.947 6.49022C78.5766 6.63871 78.2136 6.80882 77.8612 7.00056C77.7052 6.82035 77.5822 6.61997 77.4877 6.40229C77.3933 6.1846 77.3468 6.02314 77.3468 5.91646C77.3468 5.77807 77.4323 5.63679 77.6032 5.49407C77.7742 5.34991 78.0097 5.22304 78.3081 5.1106C78.6066 4.99959 78.95 4.90877 79.337 4.83958C79.7239 4.77038 80.1333 4.73578 80.5653 4.73578C81.1622 4.73578 81.6691 4.79344 82.083 4.91166C82.4985 5.02843 82.8359 5.20863 83.0954 5.4537C83.3548 5.69878 83.5408 6.0044 83.6518 6.37057C83.7612 6.73674 83.8182 7.1649 83.8182 7.65361V10.6507H83.8152Z" fill="#FF0000"/>
<path fill-rule="evenodd" clip-rule="evenodd" d="M87.5482 12.5003H85.2761V4.95925L85.4755 4.92754C85.5415 4.91745 85.6195 4.9088 85.708 4.90447C85.7965 4.8987 85.9015 4.89582 86.0229 4.89582C86.3769 4.89582 86.6828 4.95637 86.9438 5.07891C87.2033 5.20144 87.3667 5.41624 87.4327 5.72475C87.6202 5.47968 87.9081 5.25478 88.2951 5.04719C88.682 4.8396 89.2069 4.73724 89.8713 4.73724C90.6572 4.73724 91.2376 4.88573 91.6126 5.18414C91.9875 5.48112 92.232 5.87468 92.3429 6.36338C92.3984 6.60846 92.4344 6.87372 92.4509 7.1606C92.4674 7.44748 92.4749 7.73004 92.4749 8.00538V12.5018H90.2193V8.10053C90.2193 7.86699 90.2118 7.64931 90.1953 7.44748C90.1788 7.24565 90.1338 7.07266 90.0633 6.92994C89.9913 6.78578 89.8743 6.67477 89.7154 6.59548C89.5549 6.5162 89.3314 6.47583 89.0435 6.47583C88.634 6.47583 88.2831 6.558 87.9906 6.72235C87.6982 6.88669 87.5512 7.0914 87.5512 7.33647V12.5018L87.5482 12.5003Z" fill="#FF0000"/>
<path fill-rule="evenodd" clip-rule="evenodd" d="M97.8965 11.1293C98.1395 11.1293 98.3614 11.1034 98.5594 11.05C98.7589 10.9967 98.9358 10.9304 99.0903 10.8511C99.2448 10.7718 99.3783 10.6868 99.4878 10.5959C99.5987 10.5051 99.6812 10.4287 99.7367 10.3653C99.8027 10.4287 99.8702 10.5109 99.9362 10.6118C100.002 10.7127 100.064 10.8194 100.119 10.9304C100.175 11.0414 100.218 11.1509 100.251 11.2576C100.284 11.3643 100.301 11.4595 100.301 11.5445C100.301 11.6512 100.278 11.755 100.235 11.8559C100.19 11.9568 100.097 12.0606 99.9527 12.1673C99.7427 12.3158 99.4443 12.4542 99.0573 12.5825C98.6704 12.7093 98.1785 12.7742 97.5816 12.7742C97.1826 12.7742 96.7522 12.7209 96.2873 12.6142C95.8223 12.5075 95.3919 12.3057 94.9945 12.0087C94.5955 11.7117 94.2641 11.2994 93.9986 10.7732C93.7332 10.2471 93.6012 9.55941 93.6012 8.70885C93.6012 7.8583 93.7392 7.24273 94.0151 6.7324C94.2911 6.22207 94.6345 5.81842 95.044 5.52C95.4534 5.22303 95.8868 5.01832 96.3458 4.90587C96.8047 4.79487 97.2171 4.73865 97.5816 4.73865C98.0465 4.73865 98.4694 4.78622 98.8504 4.88281C99.2313 4.97796 99.5493 5.10626 99.8042 5.26484C100.014 5.39314 100.161 5.51424 100.244 5.63101C100.326 5.74778 100.368 5.88617 100.368 6.04619C100.368 6.19468 100.319 6.37776 100.22 6.59545C100.121 6.81313 99.9932 7.01207 99.8387 7.19372C99.6617 7.01352 99.4023 6.83331 99.0588 6.65167C98.7154 6.47147 98.3344 6.38065 97.9145 6.38065C97.1841 6.38065 96.6652 6.59545 96.3548 7.02649C96.0443 7.45753 95.8898 8.00679 95.8898 8.67714C95.8898 9.01736 95.9228 9.33596 95.9888 9.63437C96.0548 9.93134 96.1688 10.1923 96.3293 10.4157C96.4897 10.6392 96.6967 10.8136 96.9517 10.9419C97.2066 11.0702 97.5216 11.1337 97.8965 11.1337V11.1293Z" fill="#FF0000"/>
<path fill-rule="evenodd" clip-rule="evenodd" d="M105.428 8.80113H105.196C105.118 8.80113 105.041 8.8069 104.963 8.81699C104.686 8.83861 104.413 8.87321 104.142 8.92079C103.87 8.96836 103.63 9.04332 103.42 9.14424C103.21 9.24515 103.039 9.38066 102.906 9.55077C102.774 9.72088 102.706 9.93857 102.706 10.2038C102.706 10.5008 102.795 10.7531 102.972 10.9607C103.149 11.1683 103.447 11.2706 103.867 11.2706C104.077 11.2706 104.277 11.2447 104.464 11.1913C104.651 11.138 104.818 11.0688 104.962 10.9837C105.106 10.8987 105.218 10.8064 105.302 10.7041C105.385 10.6032 105.427 10.5109 105.427 10.4244V8.79825L105.428 8.80113ZM107.552 10.6507C107.552 11.4797 107.679 12.0909 107.933 12.4845C107.735 12.5594 107.549 12.6113 107.378 12.6445C107.206 12.6762 107.027 12.6921 106.84 12.6921C106.441 12.6921 106.139 12.6171 105.935 12.4686C105.731 12.3201 105.601 12.1082 105.545 11.8314C105.302 12.0765 104.981 12.2826 104.584 12.4527C104.185 12.6229 103.699 12.7079 103.125 12.7079C102.826 12.7079 102.528 12.6675 102.229 12.5883C101.931 12.509 101.659 12.3792 101.416 12.1976C101.174 12.0174 100.974 11.7752 100.82 11.4724C100.665 11.1697 100.587 10.8007 100.587 10.3638C100.587 9.8218 100.722 9.38066 100.994 9.04044C101.265 8.70022 101.604 8.43208 102.013 8.23458C102.423 8.03852 102.865 7.90301 103.341 7.82804C103.816 7.75308 104.253 7.70551 104.651 7.68532C104.785 7.67523 104.914 7.66947 105.041 7.66947H105.398V7.38258C105.398 6.97893 105.284 6.69205 105.058 6.52194C104.831 6.35183 104.464 6.26677 103.954 6.26677C103.479 6.26677 103.056 6.34174 102.685 6.49022C102.315 6.63871 101.952 6.80882 101.599 7.00056C101.443 6.82035 101.32 6.61997 101.226 6.40229C101.132 6.1846 101.085 6.02314 101.085 5.91646C101.085 5.77807 101.171 5.63679 101.341 5.49407C101.512 5.34991 101.748 5.22304 102.046 5.1106C102.345 4.99959 102.688 4.90877 103.075 4.83958C103.462 4.77038 103.872 4.73578 104.302 4.73578C104.899 4.73578 105.406 4.79344 105.82 4.91166C106.235 5.02843 106.571 5.20863 106.832 5.4537C107.092 5.69878 107.278 6.0044 107.389 6.37057C107.498 6.73674 107.553 7.1649 107.553 7.65361V10.6507H107.552Z" fill="#FF0000"/>
<path fill-rule="evenodd" clip-rule="evenodd" d="M113.191 13.8078C112.969 14.5099 112.602 15.0692 112.089 15.4902C111.574 15.9097 110.869 16.1202 109.974 16.1202C109.476 16.1202 109.067 16.051 108.746 15.9126C108.425 15.7742 108.264 15.5407 108.264 15.2105C108.264 15.062 108.306 14.8962 108.389 14.716C108.471 14.5344 108.585 14.3326 108.729 14.1106C108.851 14.1956 109.011 14.2706 109.211 14.334C109.41 14.3974 109.62 14.4292 109.841 14.4292C110.183 14.4292 110.465 14.3412 110.686 14.1653C110.907 13.9909 111.094 13.6795 111.25 13.2326L111.532 12.4354C111.532 12.4354 110.649 12.7699 110.33 11.9323C110.174 11.5229 107.949 5.06876 107.949 5.06876C108.116 5.01542 108.317 4.97217 108.555 4.94046C108.792 4.90874 109.011 4.89288 109.211 4.89288C109.52 4.89288 109.794 4.97217 110.033 5.13219C110.27 5.29221 110.439 5.53729 110.538 5.86597L112.032 10.7761L113.259 6.48731C113.325 6.26386 113.4 6.05627 113.482 5.86597C113.565 5.67424 113.666 5.50701 113.789 5.36429C113.911 5.22013 114.061 5.10624 114.238 5.02119C114.415 4.93613 114.631 4.89433 114.884 4.89433C115.094 4.89433 115.283 4.91307 115.448 4.95055C115.615 4.98803 115.78 5.03849 115.946 5.10192L113.193 13.8078H113.191Z" fill="#FF0000"/>
<path fill-rule="evenodd" clip-rule="evenodd" d="M121.585 8.70599C121.585 8.4191 121.563 8.13511 121.519 7.85255C121.476 7.57144 121.392 7.32348 121.27 7.11156C121.149 6.89964 120.982 6.72665 120.772 6.59402C120.562 6.46139 120.297 6.39508 119.976 6.39508C119.655 6.39508 119.387 6.46427 119.172 6.60267C118.956 6.74106 118.785 6.91982 118.658 7.13751C118.53 7.35519 118.439 7.60171 118.383 7.8785C118.328 8.15529 118.301 8.4364 118.301 8.72328C118.301 9.01017 118.325 9.29705 118.376 9.58393C118.425 9.87081 118.511 10.1289 118.632 10.3566C118.754 10.5859 118.923 10.7689 119.138 10.9073C119.354 11.0457 119.622 11.1149 119.943 11.1149C120.264 11.1149 120.549 11.0457 120.765 10.9073C120.981 10.7689 121.149 10.5859 121.27 10.3566C121.392 10.1289 121.474 9.87081 121.519 9.58393C121.563 9.29705 121.585 9.0044 121.585 8.70743V8.70599ZM123.857 8.69013C123.857 9.22208 123.788 9.73242 123.65 10.2211C123.512 10.7098 123.286 11.1409 122.971 11.5128C122.656 11.8847 122.25 12.1832 121.752 12.4052C121.254 12.6286 120.651 12.7396 119.943 12.7396C119.235 12.7396 118.635 12.6301 118.143 12.4124C117.651 12.1947 117.251 11.902 116.941 11.5359C116.632 11.1697 116.404 10.7444 116.261 10.26C116.117 9.77711 116.045 9.26822 116.045 8.7377C116.045 8.19565 116.128 7.68244 116.294 7.1995C116.461 6.71656 116.707 6.29128 117.032 5.92367C117.357 5.5575 117.77 5.26774 118.268 5.05438C118.766 4.84246 119.346 4.73578 120.009 4.73578C120.705 4.73578 121.3 4.84246 121.792 5.05438C122.284 5.26629 122.682 5.55317 122.986 5.91502C123.291 6.27542 123.511 6.69638 123.649 7.17499C123.787 7.65361 123.856 8.15817 123.856 8.69013H123.857Z" fill="#FF0000"/>
</g>
<defs>
<clipPath id="clip0_15372_290">
<rect width="123" height="24" fill="white" transform="translate(0.857239)"/>
</clipPath>
</defs>
</svg>
