<svg width="86" height="40" viewBox="0 0 86 40" fill="none" xmlns="http://www.w3.org/2000/svg">
<path d="M4.74339 23.5957C4.26562 22.3968 3.99994 21.0929 3.99994 19.7266C3.99994 18.9563 4.08478 18.2017 4.24329 17.4806C5.28368 18.7308 6.85542 19.5301 8.61024 19.5301C8.67945 19.5301 8.74643 19.5256 8.81341 19.5256C8.81341 19.5882 8.80894 19.6596 8.80894 19.7266C8.80894 21.4814 9.60375 23.0509 10.8562 24.0935C10.1351 24.2498 9.38272 24.3346 8.61024 24.3346C7.24166 24.3346 5.9356 24.069 4.74116 23.5957" fill="#248339"/>
<path d="M24.2384 23.5957C24.7139 22.3968 24.9774 21.0929 24.9774 19.7266C24.9774 18.9563 24.8925 18.2017 24.7363 17.4806C23.6959 18.7308 22.1219 19.5301 20.3693 19.5301C20.3001 19.5301 20.2309 19.5256 20.1617 19.5256C20.1684 19.5882 20.1684 19.6596 20.1684 19.7266C20.1684 21.4814 19.3736 23.0509 18.1211 24.0935C18.8422 24.2498 19.5991 24.3346 20.3693 24.3346C21.7357 24.3346 23.0395 24.069 24.2384 23.5957Z" fill="#007AA1"/>
<path d="M8.81117 19.5032C8.81117 19.5211 8.81787 19.5233 8.81117 19.5233C8.74419 19.5233 8.67721 19.5278 8.60577 19.5278C6.85319 19.5278 5.28367 18.7285 4.24329 17.4805C4.52906 16.1566 5.06935 14.9286 5.8061 13.8458C6.21913 14.4509 6.68798 15.0112 7.21263 15.5158C7.37785 15.6832 7.56315 15.8284 7.76632 15.9422C7.77078 15.9422 7.77078 15.9422 7.77301 15.9422C7.83776 15.978 7.9025 16.0137 7.97171 16.0405C7.97841 16.0405 7.98065 16.0494 7.98734 16.0516C8.04986 16.0829 8.1146 16.1007 8.17935 16.1231C8.19274 16.1275 8.20167 16.132 8.21284 16.1342C8.27312 16.1543 8.33786 16.1722 8.39814 16.1856C8.41377 16.19 8.43386 16.1967 8.44726 16.199C8.50754 16.2124 8.57228 16.2191 8.63033 16.228C8.65489 16.2325 8.67052 16.2347 8.68615 16.2369C8.77322 16.2481 8.85359 16.2503 8.93843 16.2503C9.57248 16.2503 10.1463 16.0025 10.5749 15.5984C10.5749 15.5984 10.5794 15.6006 10.5794 15.6029C9.53676 16.5919 8.81117 17.9672 8.81117 19.5032Z" fill="#00B1B7"/>
<path d="M20.1684 19.5032C20.1684 19.5211 20.1617 19.5233 20.1684 19.5233C20.2376 19.5233 20.3001 19.5278 20.3693 19.5278C22.1242 19.5278 23.6959 18.7285 24.7363 17.4805C24.4483 16.1566 23.9102 14.9286 23.1712 13.8458C22.7582 14.4509 22.2894 15.0112 21.7669 15.5158H21.7625C21.604 15.6832 21.4142 15.8284 21.211 15.9422H21.2066C21.1396 15.978 21.0748 16.0137 21.0056 16.0405C20.9989 16.0405 20.9967 16.0494 20.99 16.0516C20.9253 16.0829 20.8583 16.1007 20.7935 16.1231C20.7846 16.1275 20.7734 16.132 20.7645 16.1342C20.7042 16.1543 20.6395 16.1722 20.577 16.1856C20.5613 16.19 20.5457 16.1967 20.5301 16.199C20.4676 16.2124 20.4051 16.2191 20.3403 16.228C20.3225 16.2325 20.3046 16.2347 20.2823 16.2369C20.2019 16.2481 20.1193 16.2503 20.0367 16.2503C19.4004 16.2503 18.8289 16.0025 18.398 15.5984C18.398 15.5984 18.3935 15.6006 18.3935 15.6029C19.4361 16.5919 20.1639 17.9672 20.1639 19.5032" fill="#00B1B7"/>
<path d="M4.74339 4.09608C4.26562 5.29498 3.99994 6.59882 3.99994 7.9674C3.99994 8.73764 4.08478 9.48779 4.24329 10.2134C5.28368 8.9609 6.85542 8.16386 8.61024 8.16386C8.67945 8.16386 8.74643 8.16386 8.81341 8.16833C8.81341 8.09912 8.80894 8.03214 8.80894 7.96516C8.80894 6.20811 9.60375 4.63637 10.8562 3.59821C10.1351 3.4397 9.38272 3.35486 8.61024 3.35486C7.24166 3.35486 5.9356 3.62054 4.74116 4.09385" fill="#737530"/>
<path d="M8.83346 19.5233C8.81783 19.5233 8.81337 19.5233 8.81337 19.5233C8.81337 19.5859 8.8089 19.6573 8.8089 19.7243C8.8089 21.4791 9.6037 23.0486 10.8562 24.0912C12.1734 23.7988 13.408 23.2652 14.4886 22.5284C13.8836 22.1154 13.3232 21.6443 12.8209 21.1196C12.6534 20.9544 12.5061 20.7691 12.3944 20.5637H12.3877C12.3543 20.4968 12.3208 20.4298 12.2895 20.3628C12.2873 20.3583 12.2828 20.3516 12.2828 20.3449C12.2583 20.2824 12.2315 20.2177 12.2091 20.1507C12.2047 20.1418 12.2002 20.1306 12.2002 20.1217C12.1823 20.0592 12.1645 19.9966 12.1489 19.9319C12.1444 19.9163 12.1399 19.9051 12.1377 19.885C12.1221 19.8247 12.1154 19.76 12.1064 19.6997C12.1064 19.6796 12.102 19.6618 12.0997 19.6439C12.0886 19.5635 12.0863 19.4809 12.0863 19.3961C12.0863 18.7576 12.3364 18.186 12.7338 17.7551C11.7448 18.7955 10.3672 19.5233 8.83346 19.5233Z" fill="#F7AB33"/>
<path d="M8.83346 8.16838C8.81783 8.16838 8.81337 8.17061 8.81337 8.16838C8.81337 8.09917 8.8089 8.03219 8.8089 7.96522C8.8089 6.20817 9.6037 4.63865 10.8562 3.59827C12.1734 3.8885 13.408 4.42656 14.4886 5.15885C13.8836 5.56965 13.3232 6.04072 12.8209 6.56985C12.6534 6.73059 12.5061 6.9159 12.3944 7.1213L12.3877 7.12799C12.3543 7.19274 12.3208 7.25972 12.2895 7.32223C12.2873 7.33339 12.2828 7.33786 12.2828 7.34232C12.2583 7.40484 12.2315 7.47181 12.2091 7.53433C12.2047 7.54772 12.2002 7.55442 12.2002 7.56558C12.1823 7.62809 12.1645 7.68837 12.1489 7.75535C12.1444 7.77098 12.1399 7.78661 12.1377 7.80224C12.1221 7.86252 12.1154 7.92726 12.1064 7.98754C12.1064 8.0054 12.102 8.0255 12.0997 8.04559C12.0886 8.12596 12.0863 8.2108 12.0863 8.29341C12.0863 8.92746 12.3364 9.50347 12.7338 9.9299C12.7338 9.9299 12.7338 9.9299 12.7338 9.93213C11.7448 8.89397 10.3672 8.16615 8.83346 8.16615" fill="#F7AB33"/>
<path d="M16.5895 20.5659C16.6252 20.4989 16.6565 20.432 16.6877 20.365C16.6922 20.3605 16.6922 20.3538 16.6967 20.3494C16.7235 20.2846 16.7458 20.2221 16.7703 20.1529C16.7748 20.144 16.7793 20.1328 16.7837 20.1239C16.8016 20.0614 16.8172 19.9988 16.8329 19.9363C16.8351 19.9162 16.8396 19.9051 16.844 19.8872C16.8574 19.8269 16.8619 19.7622 16.873 19.7019C16.873 19.684 16.8775 19.6684 16.8797 19.6461C16.8887 19.5657 16.8954 19.4831 16.8954 19.3983C16.8954 18.0677 15.817 16.9938 14.4909 16.9938C13.1647 16.9938 12.0864 18.0677 12.0864 19.3983C12.0864 19.4809 12.0886 19.5657 12.0998 19.6461C12.0998 19.6617 12.1065 19.6707 12.1065 19.6863C12.1132 19.7555 12.1221 19.8247 12.1377 19.8872C12.1377 19.9028 12.1422 19.914 12.1444 19.9274C12.1623 19.9921 12.1734 20.0614 12.2002 20.1239C12.2002 20.1328 12.2047 20.1417 12.2069 20.1462C12.2315 20.2154 12.256 20.2869 12.2828 20.3516C12.2828 20.3561 12.2851 20.3583 12.2873 20.3628C12.4146 20.6508 12.5954 20.9075 12.8231 21.1263C13.3255 21.651 13.8858 22.1198 14.4909 22.5328C15.0959 22.1198 15.6563 21.6487 16.1608 21.1241C16.3283 20.9633 16.4756 20.7736 16.5917 20.5682" fill="#DF0713"/>
<path d="M16.8797 8.04784C16.8753 8.02775 16.8753 8.00542 16.8708 7.98979C16.8597 7.92951 16.8552 7.86477 16.8418 7.80449C16.8373 7.78886 16.8329 7.77323 16.8306 7.7576C16.815 7.69286 16.7994 7.63035 16.7815 7.56783C16.7793 7.55667 16.7748 7.54774 16.7681 7.53658C16.7458 7.47406 16.7212 7.40709 16.6944 7.34457C16.6922 7.34011 16.69 7.33564 16.6855 7.32448C16.6543 7.25973 16.623 7.19276 16.5873 7.13025C16.5873 7.13025 16.5873 7.12578 16.5873 7.12355C16.4712 6.91815 16.3261 6.73284 16.1564 6.5721C15.6518 6.04074 15.0914 5.57413 14.4864 5.16333C13.8814 5.57189 13.321 6.04074 12.8187 6.56763C12.5909 6.78866 12.4101 7.04317 12.2806 7.33564C12.2806 7.33564 12.2784 7.34234 12.2784 7.34457C12.2516 7.40932 12.2248 7.47406 12.2025 7.54327C12.2025 7.55444 12.1958 7.5589 12.1958 7.56783C12.1712 7.63481 12.1578 7.69956 12.14 7.76653C12.14 7.77993 12.1355 7.79332 12.131 7.80449C12.1176 7.86923 12.1065 7.93844 12.102 8.00765C12.102 8.02105 12.0953 8.03221 12.0953 8.05007C12.0841 8.12821 12.0819 8.21528 12.0819 8.29789C12.0819 9.62628 13.158 10.7046 14.4864 10.7046C15.8148 10.7046 16.8909 9.62628 16.8909 8.29789C16.8909 8.21752 16.8864 8.13045 16.8753 8.05007" fill="#DF0713"/>
<path d="M24.2384 4.09608C24.7139 5.29498 24.9774 6.59882 24.9774 7.9674C24.9774 8.73764 24.8925 9.48779 24.7363 10.2134C23.6959 8.9609 22.1219 8.16386 20.3693 8.16386C20.3001 8.16386 20.2309 8.16386 20.1617 8.16833C20.1684 8.09912 20.1684 8.03214 20.1684 7.96516C20.1684 6.20811 19.3736 4.63637 18.1211 3.59821C18.8422 3.4397 19.5991 3.35486 20.3693 3.35486C21.7357 3.35486 23.0395 3.62054 24.2384 4.09385" fill="#B06B3C"/>
<path d="M20.1437 19.5233C20.1616 19.5233 20.1616 19.5233 20.1616 19.5233C20.1683 19.5859 20.1683 19.6573 20.1683 19.7243C20.1683 21.4791 19.3757 23.0486 18.1232 24.0912C16.7993 23.7988 15.5736 23.2652 14.4886 22.5284C15.0936 22.1154 15.654 21.6443 16.1586 21.1196C16.326 20.9544 16.4711 20.7691 16.5895 20.5637V20.5615C16.6252 20.4968 16.6564 20.4298 16.6877 20.3628C16.6922 20.3583 16.6922 20.3516 16.6966 20.3449C16.7234 20.2824 16.7457 20.2177 16.7703 20.1507C16.7748 20.1418 16.7792 20.1306 16.7837 20.1217C16.8016 20.0592 16.8172 19.9966 16.8328 19.9319C16.835 19.9163 16.8417 19.9051 16.844 19.885C16.8574 19.8247 16.8618 19.76 16.873 19.6997C16.873 19.6796 16.8775 19.6618 16.8797 19.6439C16.8886 19.5635 16.8953 19.4809 16.8953 19.3961C16.8953 18.7576 16.6453 18.186 16.2456 17.7551H16.2479C17.2414 18.7955 18.61 19.5233 20.146 19.5233" fill="#EC6A61"/>
<path d="M20.1437 8.16838C20.1616 8.16838 20.1616 8.17061 20.1616 8.16838C20.1683 8.09917 20.1683 8.03219 20.1683 7.96522C20.1683 6.20817 19.3757 4.63865 18.1232 3.59827C16.7993 3.8885 15.5736 4.42656 14.4886 5.15885C15.0936 5.56965 15.654 6.04072 16.1586 6.56985C16.326 6.73059 16.4711 6.9159 16.5895 7.1213V7.12799C16.6252 7.19274 16.6564 7.25972 16.6877 7.32223C16.6922 7.33339 16.6922 7.33786 16.6966 7.34232C16.7234 7.40484 16.7457 7.47181 16.7703 7.53433C16.7748 7.54772 16.7792 7.55442 16.7837 7.56558C16.8016 7.62809 16.8172 7.68837 16.8328 7.75535C16.835 7.77098 16.8417 7.78661 16.844 7.80224C16.8574 7.86252 16.8618 7.92726 16.873 7.98754C16.873 8.0054 16.8775 8.0255 16.8797 8.04559C16.8886 8.12596 16.8953 8.2108 16.8953 8.29341C16.8953 8.92746 16.6453 9.50347 16.2456 9.9299C16.2456 9.9299 16.2479 9.9299 16.2479 9.93213C17.2414 8.89397 18.61 8.16615 20.146 8.16615" fill="#EC6A61"/>
<path d="M8.81117 8.19057C8.81117 8.17271 8.81787 8.17048 8.81117 8.17048C8.74419 8.16825 8.67721 8.16602 8.60577 8.16602C6.85319 8.16602 5.28367 8.96082 4.24329 10.2133C4.52906 11.535 5.06935 12.7652 5.8061 13.848C6.21913 13.2407 6.68798 12.6803 7.21263 12.1758C7.37785 12.0105 7.56315 11.8654 7.76632 11.7493C7.76632 11.7493 7.76855 11.7493 7.77301 11.7493C7.83776 11.7136 7.9025 11.6801 7.97171 11.6533C7.97841 11.6466 7.98065 11.6444 7.98734 11.6444C8.04986 11.6154 8.1146 11.593 8.17935 11.5707C8.19274 11.5707 8.20167 11.5618 8.21284 11.5596C8.27312 11.5395 8.33786 11.5261 8.39814 11.5104C8.41377 11.506 8.43386 11.4993 8.44726 11.497C8.50754 11.4881 8.57228 11.4747 8.63033 11.4658C8.65489 11.4658 8.67052 11.4613 8.68615 11.4569C8.77322 11.4502 8.85359 11.4457 8.93843 11.4457C9.57248 11.4457 10.1463 11.6913 10.5749 12.0931L10.5794 12.0887C9.53676 11.1019 8.81117 9.72436 8.81117 8.19281" fill="#93C02F"/>
<path d="M20.1684 8.19057C20.1684 8.17271 20.1617 8.17048 20.1684 8.17048C20.2376 8.16825 20.3001 8.16602 20.3693 8.16602C22.1242 8.16602 23.6959 8.96082 24.7363 10.2133C24.4483 11.535 23.9102 12.7652 23.1712 13.848C22.7582 13.2407 22.2894 12.6803 21.7669 12.1758H21.7625C21.604 12.0105 21.4142 11.8654 21.211 11.7493H21.2066C21.1396 11.7136 21.0748 11.6801 21.0056 11.6533C20.9989 11.6466 20.9967 11.6444 20.99 11.6444C20.9253 11.6154 20.8583 11.593 20.7935 11.5707C20.7846 11.5707 20.7734 11.5618 20.7645 11.5596C20.7042 11.5395 20.6395 11.5261 20.577 11.5104C20.5613 11.506 20.5457 11.4993 20.5301 11.497C20.4676 11.4881 20.4051 11.4747 20.3403 11.4658C20.3225 11.4658 20.3046 11.4613 20.2823 11.4569C20.2019 11.4502 20.1193 11.4457 20.0367 11.4457C19.4004 11.4457 18.8289 11.6913 18.398 12.0931L18.3935 12.0887C19.4361 11.1019 20.1639 9.72436 20.1639 8.19281" fill="#93C02F"/>
<path d="M8.94065 11.4436C8.85581 11.4436 8.77321 11.4481 8.69283 11.4548C8.67051 11.4592 8.65711 11.4637 8.63702 11.4637C8.57227 11.4726 8.51199 11.4838 8.44725 11.495C8.43385 11.4972 8.42046 11.5039 8.39813 11.5083C8.33562 11.5217 8.27311 11.5374 8.21283 11.5575C8.2039 11.5597 8.19497 11.5642 8.18157 11.5686C8.11682 11.591 8.05208 11.6155 7.98733 11.6423C7.98287 11.6423 7.9784 11.6445 7.97394 11.649C7.90473 11.6758 7.83775 11.7115 7.773 11.7472C7.773 11.7472 7.77152 11.7472 7.76854 11.7472C7.56314 11.8633 7.37784 12.0084 7.21263 12.1759C6.6902 12.6782 6.21689 13.2386 5.80609 13.8459C6.21689 14.4509 6.68797 15.0091 7.21263 15.5159C7.3756 15.6833 7.56091 15.8284 7.76854 15.9423H7.773C7.83775 15.978 7.9025 16.0137 7.97394 16.0427C7.9784 16.0427 7.98064 16.0494 7.98733 16.0517C8.04985 16.0829 8.11682 16.1008 8.18157 16.1231C8.19497 16.1276 8.2039 16.132 8.21283 16.1343C8.27311 16.1544 8.33785 16.1722 8.39813 16.1856C8.42046 16.1901 8.43385 16.1968 8.44725 16.199C8.50753 16.2124 8.57227 16.2191 8.63255 16.228C8.65488 16.2325 8.66827 16.2347 8.6906 16.237C8.77097 16.2481 8.85358 16.2504 8.93842 16.2504C10.2646 16.2504 11.3429 15.1698 11.3429 13.8459C11.3429 12.5219 10.2623 11.4436 8.93842 11.4436" fill="#408737"/>
<path d="M23.1712 13.8457C22.7604 13.2407 22.2893 12.6781 21.7624 12.1757C21.6039 12.0083 21.4141 11.8654 21.2087 11.7471C21.2087 11.7471 21.2073 11.7471 21.2043 11.7471C21.1395 11.7114 21.0748 11.6779 21.0056 11.6511C20.9989 11.6444 20.9944 11.6421 20.9899 11.6421C20.9252 11.6131 20.8582 11.5908 20.7957 11.5685C20.7823 11.5685 20.7712 11.5595 20.7622 11.5573C20.7042 11.5372 20.6394 11.5238 20.5792 11.5104C20.5613 11.5037 20.5457 11.4993 20.5278 11.4948C20.4653 11.4859 20.405 11.4725 20.3425 11.468C20.3246 11.4658 20.3068 11.4613 20.2845 11.4568C20.2018 11.4501 20.1215 11.4457 20.0411 11.4457C18.7105 11.4457 17.6366 12.5196 17.6366 13.8479C17.6366 15.1763 18.7105 16.2525 20.0411 16.2525C20.1237 16.2525 20.2018 16.2524 20.2845 16.2391C20.3068 16.2391 20.3224 16.2346 20.3425 16.2301C20.405 16.219 20.4675 16.2145 20.5323 16.2011C20.5479 16.1966 20.5635 16.1922 20.5814 16.1877C20.6417 16.1743 20.7064 16.1587 20.7667 16.1364C20.7779 16.1364 20.7868 16.1319 20.7979 16.1252C20.8605 16.1006 20.9274 16.0805 20.9922 16.0537C20.9966 16.0537 21.0033 16.0448 21.0078 16.0426C21.077 16.0136 21.1418 15.9801 21.2065 15.9444H21.211C21.4141 15.8305 21.6039 15.6854 21.7624 15.5179C22.2893 15.0111 22.7604 14.453 23.1712 13.8479" fill="#408737"/>
<path d="M37.8081 12.2875C38.9758 12.2875 40.0608 12.7541 40.8712 13.5935C41.5544 14.3057 42.6729 14.3214 43.3762 13.6471C44.0817 12.9639 44.104 11.8476 43.4231 11.1399C41.9406 9.59719 39.9492 8.74657 37.8081 8.74657C33.5104 8.74657 30.0119 12.2473 30.0119 16.5428C30.0119 20.8383 33.5104 24.3345 37.8081 24.3345C39.9492 24.3345 41.9384 23.4906 43.4231 21.9457C44.104 21.2402 44.0817 20.1194 43.3762 19.4385C42.6729 18.762 41.5522 18.7821 40.8712 19.4876C40.0608 20.3315 38.978 20.7936 37.8081 20.7936C35.4639 20.7936 33.555 18.8848 33.555 16.5405C33.555 14.1963 35.4639 12.2875 37.8081 12.2875ZM47.8347 30.4496C47.4797 30.4496 47.2877 30.6505 47.2877 31.0256V31.2176H47.2698C47.0711 30.6997 46.5755 30.4496 45.9883 30.4496C44.9703 30.4496 44.0795 31.1931 44.0795 32.7693C44.0795 33.9347 44.6711 35.0309 45.9526 35.0309C46.5108 35.0309 46.926 34.8054 47.1537 34.4125H47.1694V36.04C47.1694 36.4374 47.4105 36.645 47.7811 36.645C48.1517 36.645 48.3861 36.4396 48.3861 36.04V31.0256C48.3861 30.6505 48.212 30.4496 47.8347 30.4496ZM46.2585 34.0798C45.4838 34.0798 45.294 33.2939 45.294 32.7291C45.294 32.0124 45.6088 31.4185 46.2585 31.4007C46.9684 31.4007 47.2341 32.037 47.2341 32.7291C47.2341 33.3542 46.9997 34.091 46.2585 34.0798ZM41.1101 30.4496C39.6924 30.4496 38.844 31.3985 38.844 32.8184C38.844 33.8744 39.4781 35.0286 41.1503 35.0286C41.8737 35.0286 43.0257 34.6848 43.0257 33.9525C43.0257 33.727 42.8225 33.477 42.5345 33.477C42.0523 33.477 42.0523 34.0776 41.1503 34.0776C40.4537 34.0776 40.0429 33.6087 40.0429 32.968H42.7488C43.1485 32.968 43.2735 32.863 43.2735 32.4433C43.2735 31.4431 42.4876 30.4496 41.1101 30.4496ZM39.9492 32.2647C40.0787 31.6775 40.4895 31.3002 41.0878 31.3002C41.6191 31.3002 42.0791 31.711 42.1416 32.2647H39.9492ZM81.8371 20.0279V13.1738C81.8371 10.2379 79.6067 8.92964 75.6885 8.92964C71.4957 8.92964 69.5489 11.0506 69.5489 12.6715C69.5489 13.5132 70.2477 14.2365 71.2836 14.2365C72.9045 14.2365 72.6656 12.0999 75.3916 11.9995C76.7579 11.9503 77.9591 12.5018 77.9591 13.6806C77.9591 14.8594 77.2669 15.1675 75.8939 15.2546C71.6207 15.5292 68.6268 16.4557 68.6268 20.0122C68.6268 25.1249 75.9497 25.5357 78.1979 22.2716C78.2337 22.2136 78.2337 22.1801 78.2292 22.2426C78.1578 23.2651 79.1245 24.3993 80.4082 24.3345C81.3414 24.2921 82 24.0063 82 23.4437C82 22.7985 81.8348 21.7358 81.8348 20.0279H81.8371ZM77.9591 18.3311C77.9591 20.1239 76.7646 21.2937 74.9741 21.2937C74.0163 21.2937 72.7058 20.7869 72.7058 19.6171C72.7058 18.3891 73.793 17.8355 75.2866 17.5854C76.7802 17.3354 77.5125 17.1523 77.9568 16.7393V18.3311H77.9591ZM37.9398 30.4474C37.634 30.4474 36.9999 30.6885 36.857 31.1998H36.8414V31.0144C36.8414 30.6483 36.6003 30.4474 36.2922 30.4474C35.9841 30.4474 35.7452 30.6483 35.7452 31.0144V34.4169C35.7452 34.7429 35.8747 35.0264 36.3547 35.0264C36.8347 35.0264 36.9642 34.7429 36.9642 34.4169V33.0015C36.9642 31.4967 37.5893 31.6485 37.9398 31.6485C38.2479 31.6485 38.5359 31.4878 38.5359 31.0412C38.5359 30.6997 38.3261 30.4474 37.9421 30.4474H37.9398ZM34.6021 31.7155C34.6021 30.8403 33.9346 30.4474 32.7692 30.4474C31.5144 30.4474 30.9295 31.0837 30.9295 31.5681C30.9295 31.8159 31.1416 32.037 31.4475 32.037C31.9342 32.037 31.8627 31.3962 32.6776 31.3672C33.0817 31.3538 33.4456 31.519 33.4456 31.8673C33.4456 32.2156 33.2358 32.3116 32.825 32.3384C31.5479 32.421 30.6549 32.6978 30.6549 33.7605C30.6549 35.2876 32.8406 35.4082 33.5126 34.4348C33.5238 34.4192 33.5215 34.4058 33.5215 34.4281C33.5014 34.7317 33.8587 35.08 34.169 35.051C34.4637 35.0264 34.6423 34.955 34.6423 34.7831C34.6423 34.5888 34.5976 34.274 34.5976 33.765V31.7177L34.6021 31.7155ZM33.4479 33.2582C33.4479 33.7896 33.0906 34.1423 32.5504 34.1423C32.2668 34.1423 31.8806 33.9927 31.8806 33.64C31.8806 33.2872 32.2021 33.1064 32.6441 33.0349C33.0929 32.959 33.3139 32.9077 33.4479 32.7849V33.2582ZM66.1732 31.7155C66.1732 30.8403 65.5079 30.4474 64.3402 30.4474C63.0855 30.4474 62.5073 31.0837 62.5073 31.5681C62.5073 31.8159 62.7149 32.037 63.0208 32.037C63.5075 32.037 63.4338 31.3962 64.2465 31.3672C64.6595 31.3538 65.0167 31.519 65.0167 31.8673C65.0167 32.2156 64.8091 32.3116 64.4005 32.3384C63.1257 32.421 62.2304 32.6978 62.2304 33.7605C62.2304 35.2876 64.4161 35.4082 65.0882 34.4348C65.0993 34.4192 65.0993 34.4058 65.0971 34.4281C65.0748 34.7317 65.4342 35.08 65.7445 35.051C66.037 35.0264 66.2245 34.955 66.2245 34.7831C66.2245 34.5888 66.1754 34.274 66.1754 33.765V31.7177L66.1732 31.7155ZM65.0167 33.2582C65.0167 33.7896 64.6617 34.1423 64.1259 34.1423C63.8401 34.1423 63.4494 33.9927 63.4494 33.64C63.4494 33.2872 63.7732 33.1064 64.2219 33.0349C64.6662 32.959 64.885 32.9077 65.0167 32.7849V33.2582ZM52.9138 30.4474C52.4405 30.4474 52.3066 30.7309 52.3066 31.0569V33.0662C52.3066 33.6735 51.8042 34.0284 51.3778 34.0284C50.8554 34.0284 50.6143 33.6735 50.6143 33.1823V31.0569C50.6143 30.7309 50.4803 30.4474 50.0048 30.4474C49.5292 30.4474 49.3975 30.7309 49.3975 31.0569V33.4256C49.3975 34.658 50.199 35.0264 50.9313 35.0264C51.6234 35.0264 52.0677 34.7072 52.4093 34.2584H52.4271V34.4169C52.4271 34.7831 52.5901 35.0264 52.9786 35.0264C53.3671 35.0264 53.5256 34.7831 53.5256 34.4169V31.0569C53.5256 30.7309 53.3916 30.4474 52.9138 30.4474ZM59.7411 30.4474C59.1472 30.4474 58.6538 30.6996 58.4574 31.2154H58.4395V31.0234C58.4395 30.6483 58.2453 30.4474 57.888 30.4474C57.5308 30.4474 57.3344 30.6483 57.3344 31.0234V36.0378C57.3344 36.4352 57.5822 36.6428 57.9483 36.6428C58.3145 36.6428 58.5556 36.4374 58.5556 36.0378V34.4102H58.5712C58.7945 34.8032 59.2164 35.0286 59.7701 35.0286C61.0583 35.0286 61.65 33.9324 61.65 32.767C61.65 31.1908 60.7547 30.4474 59.7411 30.4474ZM59.4643 34.0776C58.7186 34.0865 58.4864 33.3497 58.4864 32.7268C58.4864 32.0347 58.7565 31.3985 59.4643 31.3985C60.1162 31.4163 60.431 32.0102 60.431 32.7268C60.431 33.2917 60.239 34.0776 59.4643 34.0776ZM55.4612 28.7573C55.0973 28.7573 54.8026 29.052 54.8026 29.4159C54.8026 29.7798 55.0973 30.0723 55.4612 30.0723C55.8251 30.0723 56.1198 29.7776 56.1198 29.4159C56.1198 29.0542 55.8251 28.7573 55.4612 28.7573ZM66.2201 23.3254V11.2515C66.2268 10.0392 65.7579 9.09262 64.1281 9.09262C62.4984 9.09262 62.0116 10.0147 62.0116 11.2292V11.2694V23.2986C62.0116 26.2479 60.2256 25.4709 59.9912 26.4175C59.6652 27.7549 61.0405 28.246 61.9246 28.2393C64.847 28.2058 66.2201 25.7946 66.2201 23.3254ZM55.4545 30.4496C54.9834 30.4496 54.8406 30.7197 54.8406 31.077V31.0859V34.3968C54.8383 34.754 54.979 35.0309 55.4545 35.0309C55.9301 35.0309 56.073 34.7607 56.073 34.4058V34.3946V31.0792C56.073 30.7287 55.9345 30.4496 55.4568 30.4496H55.4545ZM64.1348 3.35486C62.898 3.35486 61.9 4.35506 61.9 5.58745C61.9 6.81984 62.898 7.82004 64.1348 7.82004C65.3717 7.82004 66.3674 6.81538 66.3674 5.58745C66.3674 4.35953 65.3672 3.35486 64.1348 3.35486ZM55.3072 22.2426C55.2313 23.2651 56.2024 24.3993 57.4862 24.3345C58.4172 24.2921 59.0758 24.0063 59.0758 23.4437C59.0758 22.7985 58.9128 21.7358 58.9128 20.0279V13.1738C58.9128 10.2379 56.678 8.92964 52.7665 8.92964C48.5737 8.92964 46.6246 11.0506 46.6246 12.6715C46.6246 13.5132 47.3234 14.2365 48.3616 14.2365C49.9802 14.2365 49.7391 12.0999 52.4651 11.9995C53.8337 11.9503 55.037 12.5018 55.037 13.6806C55.037 14.8594 54.3405 15.1675 52.9719 15.2546C48.6942 15.5292 45.7048 16.4557 45.7048 20.0122C45.7048 25.1249 53.0277 25.5357 55.2804 22.2716C55.3183 22.2136 55.3161 22.1801 55.3116 22.2426H55.3072ZM55.0348 18.3333C55.0348 20.1261 53.8404 21.296 52.0498 21.296C51.0965 21.296 49.7837 20.7892 49.7837 19.6193C49.7837 18.3914 50.8665 17.8377 52.3601 17.5876C53.8538 17.3376 54.586 17.1545 55.0348 16.7415V18.3333Z" fill="white"/>
</svg>
