<svg width="124" height="24" viewBox="0 0 124 24" fill="none" xmlns="http://www.w3.org/2000/svg">
<g clip-path="url(#clip0_15372_322)">
<path d="M54.2965 21.6113C54.469 21.6113 54.589 21.6401 54.6565 21.6949C54.724 21.7511 54.757 21.8419 54.757 21.9645C54.757 21.9919 54.754 22.0236 54.748 22.0611C54.742 22.0985 54.7345 22.136 54.7225 22.1735H51.6674L52.5958 16.7833C52.6513 16.7732 52.7023 16.7675 52.7473 16.7675C52.9317 16.7675 53.0577 16.8107 53.1237 16.8958C53.1912 16.9823 53.2242 17.0976 53.2242 17.2417C53.2242 17.2691 53.2212 17.3037 53.2167 17.347C53.2107 17.3902 53.2047 17.4248 53.2002 17.4522L52.4893 21.6113H54.2965Z" fill="white"/>
<path d="M58.1628 21.4109C58.1568 21.4426 58.1523 21.4729 58.1508 21.4988C58.1478 21.5262 58.1463 21.5522 58.1463 21.5796C58.1463 21.6603 58.1628 21.7208 58.1958 21.7612C58.2288 21.8016 58.2903 21.8218 58.3803 21.8218C58.4253 21.8218 58.4778 21.8131 58.5393 21.7973L58.5978 22.1115C58.5303 22.149 58.4478 22.1778 58.3503 22.1995C58.2528 22.2211 58.1673 22.2312 58.0953 22.2312C57.8944 22.2312 57.7414 22.1908 57.6349 22.1101C57.5284 22.0294 57.4624 21.8982 57.4339 21.7165C57.305 21.8765 57.1505 22.0121 56.969 22.1187C56.7875 22.2254 56.5821 22.2802 56.3541 22.2802C56.1427 22.2802 55.9627 22.2456 55.8142 22.175C55.6657 22.1058 55.5442 22.0077 55.4468 21.8809C55.3493 21.7554 55.2773 21.6084 55.2338 21.4426C55.1888 21.2768 55.1663 21.0966 55.1663 20.9035C55.1663 20.5978 55.2158 20.2908 55.3163 19.9823C55.4168 19.6738 55.5607 19.3955 55.7467 19.1461C55.9342 18.8967 56.1621 18.6949 56.4321 18.5392C56.7021 18.3835 57.005 18.3057 57.341 18.3057C57.4699 18.3057 57.5959 18.3172 57.7219 18.3417C57.8479 18.3662 57.9664 18.3979 58.0773 18.4383C58.1883 18.4787 58.2903 18.5219 58.3833 18.5666C58.4748 18.6127 58.5543 18.656 58.6218 18.6992L58.1613 21.4109H58.1628ZM57.3005 18.8434C57.1115 18.8434 56.9315 18.8982 56.7606 19.0077C56.5896 19.1173 56.4411 19.2658 56.3136 19.4517C56.1846 19.6392 56.0827 19.8554 56.0077 20.1034C55.9327 20.3513 55.8952 20.6166 55.8952 20.8991C55.8952 21.4426 56.1217 21.7151 56.5731 21.7151C56.6631 21.7151 56.7591 21.6963 56.861 21.6589C56.9645 21.6214 57.0635 21.5623 57.158 21.483C57.2525 21.4037 57.3365 21.3013 57.4085 21.1788C57.4804 21.0563 57.5314 20.9092 57.5599 20.7391L57.8614 18.9789C57.7894 18.9356 57.7114 18.9025 57.6304 18.8794C57.5494 18.8564 57.4399 18.8434 57.3005 18.8434Z" fill="white"/>
<path d="M63.5935 17.2749C63.304 17.2749 63.0386 17.3484 62.7986 17.4926C62.5586 17.6382 62.3517 17.8386 62.1792 18.0938C62.0067 18.3489 61.8717 18.6517 61.7773 19.002C61.6828 19.3523 61.6348 19.7314 61.6348 20.1408C61.6348 20.3614 61.6603 20.5676 61.7143 20.7579C61.7668 20.9496 61.8462 21.1154 61.9527 21.2581C62.0592 21.4008 62.1897 21.5133 62.3457 21.5926C62.5016 21.6733 62.6861 21.7136 62.8976 21.7136C63.199 21.7136 63.472 21.6545 63.7179 21.5363C63.9639 21.4181 64.1754 21.2653 64.3539 21.0779L64.4708 21.1903C64.5713 21.2869 64.6208 21.3749 64.6208 21.4556C64.6208 21.5839 64.5623 21.6963 64.4453 21.7915C64.3733 21.8492 64.2879 21.9083 64.1904 21.9659C64.0929 22.0236 63.9789 22.0769 63.8469 22.1245C63.7165 22.1721 63.5665 22.2124 63.4 22.2442C63.232 22.2759 63.0431 22.2917 62.8316 22.2917C62.4851 22.2917 62.1882 22.2326 61.9407 22.1144C61.6918 21.9962 61.4893 21.8376 61.3348 21.6358C61.1789 21.434 61.0634 21.2019 60.9914 20.9352C60.9194 20.6699 60.8819 20.3874 60.8819 20.0861C60.8819 19.6781 60.9404 19.273 61.0574 18.8679C61.1744 18.4628 61.3483 18.0995 61.5808 17.778C61.8118 17.4566 62.1042 17.1942 62.4552 16.9938C62.8061 16.7934 63.217 16.6925 63.685 16.6925C63.9024 16.6925 64.0929 16.7141 64.2534 16.7559C64.4153 16.7977 64.5518 16.8511 64.6628 16.9145C64.7738 16.9779 64.8653 17.0457 64.9343 17.1163C65.0032 17.187 65.0557 17.2547 65.0887 17.3196C65.1277 17.3888 65.1472 17.4609 65.1472 17.5373C65.1472 17.6022 65.1337 17.6642 65.1052 17.7261C65.0767 17.7881 65.0272 17.8371 64.9553 17.8746L64.7633 17.9712C64.6343 17.7031 64.4738 17.52 64.2774 17.4205C64.0824 17.321 63.8529 17.272 63.5905 17.272L63.5935 17.2749Z" fill="white"/>
<path d="M68.1303 21.4109C68.1243 21.4426 68.1198 21.4729 68.1183 21.4988C68.1153 21.5262 68.1138 21.5522 68.1138 21.5796C68.1138 21.6603 68.1303 21.7208 68.1633 21.7612C68.1963 21.8016 68.2578 21.8218 68.3478 21.8218C68.3928 21.8218 68.4453 21.8131 68.5067 21.7973L68.5652 22.1115C68.4977 22.149 68.4153 22.1778 68.3178 22.1995C68.2203 22.2211 68.1348 22.2312 68.0628 22.2312C67.8618 22.2312 67.7089 22.1908 67.6024 22.1101C67.4959 22.0294 67.4299 21.8982 67.4014 21.7165C67.2724 21.8765 67.118 22.0121 66.9365 22.1187C66.755 22.2254 66.5496 22.2802 66.3216 22.2802C66.1101 22.2802 65.9302 22.2456 65.7817 22.175C65.6332 22.1058 65.5117 22.0077 65.4142 21.8809C65.3168 21.7554 65.2448 21.6084 65.2013 21.4426C65.1563 21.2768 65.1338 21.0966 65.1338 20.9035C65.1338 20.5978 65.1833 20.2908 65.2838 19.9823C65.3842 19.6738 65.5282 19.3955 65.7142 19.1461C65.9017 18.8967 66.1296 18.6949 66.3996 18.5392C66.6695 18.3835 66.9725 18.3057 67.3084 18.3057C67.4374 18.3057 67.5634 18.3172 67.6894 18.3417C67.8154 18.3662 67.9338 18.3979 68.0448 18.4383C68.1558 18.4787 68.2578 18.5219 68.3508 18.5666C68.4423 18.6127 68.5217 18.656 68.5892 18.6992L68.1288 21.4109H68.1303ZM67.2679 18.8434C67.079 18.8434 66.899 18.8982 66.728 19.0077C66.5571 19.1173 66.4086 19.2658 66.2811 19.4517C66.1521 19.6392 66.0501 19.8554 65.9752 20.1034C65.9002 20.3513 65.8627 20.6166 65.8627 20.8991C65.8627 21.4426 66.0891 21.7151 66.5406 21.7151C66.6305 21.7151 66.7265 21.6963 66.8285 21.6589C66.932 21.6214 67.031 21.5623 67.1255 21.483C67.22 21.4037 67.3039 21.3013 67.3759 21.1788C67.4479 21.0563 67.4989 20.9092 67.5274 20.7391L67.8289 18.9789C67.7569 18.9356 67.6789 18.9025 67.5979 18.8794C67.5169 18.8564 67.4074 18.8434 67.2679 18.8434Z" fill="white"/>
<path d="M69.8295 22.0856C69.807 22.2196 69.783 22.3566 69.759 22.4964C69.7335 22.6363 69.702 22.7747 69.663 22.9102C69.624 23.0471 69.576 23.1769 69.5206 23.3009C69.4651 23.4248 69.3946 23.5344 69.3106 23.631C69.2101 23.7434 69.0871 23.8328 68.9431 23.9006C68.7977 23.9669 68.6282 24.0015 68.4332 24.0015C68.2772 24.0015 68.1738 23.9712 68.1243 23.9092C68.0748 23.8472 68.0493 23.7607 68.0493 23.6483C68.0493 23.6209 68.0508 23.5949 68.0538 23.5676C68.0568 23.5402 68.0613 23.5142 68.0658 23.4868H68.1993C68.4677 23.4868 68.6657 23.4003 68.7932 23.2288C68.8607 23.138 68.9101 23.0284 68.9446 22.903C68.9776 22.7776 69.0091 22.6435 69.0361 22.5051L69.747 18.3864C69.8025 18.3763 69.8535 18.3705 69.897 18.3705C70.065 18.3705 70.1849 18.4167 70.2569 18.5075C70.3289 18.5983 70.3664 18.7136 70.3664 18.8535C70.3664 18.8809 70.3664 18.9126 70.3619 18.9501C70.3574 18.9875 70.3544 19.0193 70.3499 19.0467L69.831 22.087L69.8295 22.0856ZM70.2314 17.605C70.1025 17.605 70.0065 17.5647 69.942 17.4839C69.8775 17.4032 69.846 17.3095 69.846 17.2028C69.846 17.063 69.8895 16.9433 69.975 16.841C70.062 16.7386 70.1835 16.6882 70.3394 16.6882C70.4669 16.6882 70.5644 16.73 70.6274 16.8122C70.6919 16.8958 70.7234 16.9909 70.7234 17.0976C70.7234 17.2374 70.6784 17.3556 70.5899 17.4551C70.4999 17.5546 70.3799 17.6036 70.2299 17.6036L70.2314 17.605Z" fill="white"/>
<path d="M73.9809 21.4109C73.9749 21.4426 73.9704 21.4729 73.9689 21.4988C73.9659 21.5262 73.9644 21.5522 73.9644 21.5796C73.9644 21.6603 73.9809 21.7208 74.0139 21.7612C74.0469 21.8016 74.1084 21.8218 74.1983 21.8218C74.2433 21.8218 74.2958 21.8131 74.3573 21.7973L74.4158 22.1115C74.3483 22.149 74.2658 22.1778 74.1684 22.1995C74.0709 22.2211 73.9854 22.2312 73.9134 22.2312C73.7124 22.2312 73.5595 22.1908 73.453 22.1101C73.3465 22.0294 73.2805 21.8982 73.252 21.7165C73.123 21.8765 72.9685 22.0121 72.7871 22.1187C72.6056 22.2254 72.4001 22.2802 72.1722 22.2802C71.9607 22.2802 71.7807 22.2456 71.6323 22.175C71.4838 22.1058 71.3623 22.0077 71.2648 21.8809C71.1673 21.7554 71.0953 21.6084 71.0519 21.4426C71.0069 21.2768 70.9844 21.0966 70.9844 20.9035C70.9844 20.5978 71.0339 20.2908 71.1343 19.9823C71.2348 19.6738 71.3788 19.3955 71.5648 19.1461C71.7522 18.8967 71.9802 18.6949 72.2502 18.5392C72.5201 18.3835 72.8231 18.3057 73.159 18.3057C73.288 18.3057 73.414 18.3172 73.54 18.3417C73.6659 18.3662 73.7844 18.3979 73.8954 18.4383C74.0064 18.4787 74.1084 18.5219 74.2014 18.5666C74.2928 18.6127 74.3723 18.656 74.4398 18.6992L73.9794 21.4109H73.9809ZM73.1185 18.8434C72.9296 18.8434 72.7496 18.8982 72.5786 19.0077C72.4076 19.1173 72.2592 19.2658 72.1317 19.4517C72.0027 19.6392 71.9007 19.8554 71.8257 20.1034C71.7507 20.3513 71.7132 20.6166 71.7132 20.8991C71.7132 21.4426 71.9397 21.7151 72.3911 21.7151C72.4811 21.7151 72.5771 21.6963 72.6791 21.6589C72.7826 21.6214 72.8816 21.5623 72.976 21.483C73.0705 21.4037 73.1545 21.3013 73.2265 21.1788C73.2985 21.0563 73.3495 20.9092 73.378 20.7391L73.6794 18.9789C73.6074 18.9356 73.5295 18.9025 73.4485 18.8794C73.3675 18.8549 73.258 18.8434 73.1185 18.8434Z" fill="white"/>
<path d="M79.6379 21.4109C79.6319 21.4427 79.6274 21.4715 79.6259 21.4946C79.6229 21.5191 79.6214 21.5436 79.6214 21.571C79.6214 21.6517 79.6379 21.7137 79.6709 21.7555C79.7039 21.7987 79.7654 21.8204 79.8554 21.8204C79.9004 21.8204 79.9529 21.8117 80.0144 21.7959L80.0728 22.1101C80.0054 22.1476 79.9244 22.1764 79.8254 22.1981C79.7279 22.2197 79.6424 22.2298 79.5704 22.2298C79.3695 22.2298 79.2165 22.1894 79.11 22.1087C79.0035 22.028 78.9375 21.8968 78.909 21.7151C78.7636 21.8924 78.5866 22.0308 78.3781 22.1289C78.1696 22.2283 77.9612 22.2774 77.7542 22.2774C77.5307 22.2774 77.3433 22.2413 77.1888 22.1692C77.0358 22.0971 76.9098 21.9962 76.8124 21.8679C76.7149 21.7396 76.6444 21.5868 76.6039 21.4095C76.5619 21.2322 76.5409 21.0361 76.5409 20.8228C76.5409 20.5229 76.5889 20.2216 76.6879 19.9218C76.7854 19.6219 76.9248 19.3523 77.1063 19.113C77.2878 18.8737 77.5112 18.6805 77.7752 18.5292C78.0407 18.3792 78.3406 18.3043 78.6751 18.3043C78.8085 18.3043 78.9465 18.3273 79.089 18.3735C79.2315 18.4196 79.344 18.4686 79.4279 18.5219L79.7714 16.4792C79.8269 16.4691 79.8779 16.4633 79.9214 16.4633C80.0998 16.4633 80.2243 16.5066 80.2933 16.5916C80.3623 16.6781 80.3983 16.7906 80.3983 16.929C80.3983 16.9564 80.3953 16.9909 80.3893 17.0328C80.3833 17.076 80.3773 17.1106 80.3728 17.138L79.6364 21.4095L79.6379 21.4109ZM78.6586 18.8434C78.4576 18.8434 78.2731 18.8953 78.1067 19.0006C77.9387 19.1044 77.7932 19.2485 77.6672 19.4302C77.5412 19.6118 77.4438 19.8237 77.3748 20.0645C77.3043 20.3052 77.2698 20.5618 77.2698 20.8343C77.2698 21.1241 77.3253 21.3432 77.4378 21.4917C77.5487 21.6416 77.7302 21.7166 77.9822 21.7166C78.0722 21.7166 78.1711 21.6978 78.2836 21.6603C78.3946 21.6229 78.5011 21.5638 78.6016 21.4845C78.7021 21.4037 78.792 21.3028 78.873 21.1788C78.954 21.0563 79.008 20.9093 79.0365 20.7377L79.329 19.0294C79.251 18.9703 79.1595 18.9256 79.0575 18.8924C78.954 18.8607 78.822 18.8449 78.6601 18.8449L78.6586 18.8434Z" fill="white"/>
<path d="M83.4879 21.8607C83.4384 21.9083 83.3769 21.9587 83.3034 22.0092C83.2314 22.0597 83.1429 22.1072 83.0394 22.1505C82.936 22.1937 82.8145 22.2283 82.675 22.2557C82.5355 22.2831 82.3766 22.2961 82.1981 22.2961C81.9806 22.2961 81.7796 22.2658 81.5952 22.2038C81.4107 22.1418 81.2532 22.0496 81.1228 21.927C80.9923 21.803 80.8888 21.6459 80.8123 21.4527C80.7373 21.2596 80.6998 21.0318 80.6998 20.7694C80.6998 20.4104 80.7568 20.0789 80.8708 19.7761C80.9848 19.4734 81.1408 19.2125 81.3387 18.9962C81.5367 18.7785 81.7662 18.6099 82.0256 18.4888C82.2851 18.3677 82.5595 18.3071 82.8505 18.3071C83.2014 18.3071 83.4714 18.3951 83.6588 18.5681C83.8463 18.7425 83.9393 18.9688 83.9393 19.2485C83.9393 19.5066 83.8733 19.7242 83.7428 19.9044C83.6124 20.0846 83.4414 20.2302 83.2329 20.3427C83.023 20.4551 82.792 20.5373 82.5385 20.5878C82.2851 20.6382 82.0346 20.6642 81.7902 20.6642H81.5937C81.5247 20.6642 81.4587 20.6613 81.3972 20.657V20.7608C81.3972 21.0938 81.4797 21.3432 81.6447 21.509C81.8096 21.6747 82.0226 21.7584 82.2851 21.7584C82.5025 21.7584 82.7005 21.7137 82.879 21.6257C83.0575 21.5378 83.2164 21.4095 83.3559 21.2437L83.4654 21.3158C83.5209 21.3533 83.5644 21.3936 83.5944 21.4369C83.6244 21.4801 83.6409 21.5306 83.6409 21.5897C83.6409 21.6762 83.5914 21.767 83.4909 21.8636L83.4879 21.8607ZM81.7047 20.1956C81.9281 20.1956 82.1336 20.174 82.3241 20.1308C82.513 20.0875 82.678 20.027 82.8175 19.9491C82.957 19.8713 83.0664 19.7776 83.1444 19.668C83.2224 19.5584 83.2614 19.433 83.2614 19.2946C83.2614 19.1707 83.2269 19.0654 83.1564 18.9775C83.0859 18.8895 82.96 18.8449 82.7755 18.8449C82.6075 18.8449 82.453 18.878 82.3106 18.9458C82.1681 19.0121 82.0406 19.1058 81.9251 19.2269C81.8111 19.348 81.7152 19.4893 81.6357 19.6536C81.5577 19.8179 81.4992 19.9953 81.4602 20.1884C81.5052 20.1942 81.5487 20.1956 81.5892 20.1956H81.7017H81.7047Z" fill="white"/>
<path d="M85.211 21.4109C85.205 21.4427 85.2005 21.4729 85.199 21.4989C85.196 21.5263 85.1945 21.5522 85.1945 21.5796C85.1945 21.6603 85.211 21.7209 85.244 21.7613C85.277 21.8016 85.3385 21.8218 85.4285 21.8218C85.4735 21.8218 85.526 21.8131 85.5875 21.7973L85.646 22.1116C85.5785 22.149 85.496 22.1779 85.3985 22.1995C85.301 22.2211 85.2155 22.2312 85.1436 22.2312C84.9096 22.2312 84.7371 22.175 84.6291 22.0625C84.5197 21.9501 84.4687 21.8002 84.4747 21.6113C84.4747 21.5839 84.4747 21.5565 84.4792 21.5263C84.4822 21.4974 84.4867 21.4657 84.4912 21.434L85.3445 16.4792C85.4 16.4691 85.451 16.4633 85.4945 16.4633C85.673 16.4633 85.7975 16.5066 85.8664 16.5916C85.9354 16.6781 85.9714 16.7906 85.9714 16.929C85.9714 16.9564 85.9684 16.9909 85.9639 17.0328C85.9579 17.076 85.9519 17.1106 85.9474 17.138L85.211 21.4095V21.4109Z" fill="white"/>
<path d="M88.8105 20.0832L88.4506 22.175H87.7472L88.668 16.8179C88.869 16.7905 89.0745 16.7718 89.2829 16.7574C89.4914 16.7444 89.7134 16.7372 89.9488 16.7372C90.2563 16.7372 90.5233 16.7747 90.7527 16.8496C90.9807 16.9246 91.1712 17.0255 91.3211 17.1509C91.4726 17.2763 91.5836 17.4248 91.6556 17.5935C91.7276 17.7622 91.7651 17.9438 91.7651 18.137C91.7651 18.4916 91.7051 18.7915 91.5851 19.038C91.4651 19.2845 91.2971 19.4863 91.0827 19.642C90.8682 19.7977 90.6147 19.9102 90.3253 19.9794C90.0358 20.0486 89.7224 20.0846 89.3879 20.0846H88.8105V20.0832ZM90.9942 18.1557C90.9942 17.8645 90.8967 17.6454 90.7017 17.4984C90.5068 17.3499 90.2323 17.2763 89.8814 17.2763C89.7749 17.2763 89.6684 17.2792 89.5589 17.285C89.4494 17.2908 89.3564 17.298 89.2785 17.3095L88.902 19.5224H89.5049C90.0013 19.5224 90.3733 19.4114 90.6222 19.1908C90.8712 18.9702 90.9942 18.6257 90.9942 18.1572V18.1557Z" fill="white"/>
<path d="M94.6266 21.8607C94.5771 21.9083 94.5156 21.9587 94.4421 22.0092C94.3701 22.0597 94.2816 22.1072 94.1781 22.1505C94.0746 22.1937 93.9532 22.2283 93.8137 22.2557C93.6742 22.2831 93.5152 22.2961 93.3368 22.2961C93.1193 22.2961 92.9183 22.2658 92.7339 22.2038C92.5494 22.1418 92.3919 22.0496 92.2614 21.927C92.131 21.803 92.0275 21.6459 91.951 21.4527C91.8745 21.2596 91.8385 21.0318 91.8385 20.7694C91.8385 20.4104 91.8955 20.0789 92.0095 19.7761C92.1234 19.4734 92.2794 19.2125 92.4774 18.9962C92.6754 18.7785 92.9048 18.6099 93.1643 18.4888C93.4237 18.3677 93.6982 18.3071 93.9892 18.3071C94.3401 18.3071 94.6101 18.3951 94.7975 18.5681C94.985 18.7425 95.078 18.9688 95.078 19.2485C95.078 19.5066 95.012 19.7242 94.8815 19.9044C94.751 20.0846 94.5801 20.2302 94.3716 20.3427C94.1616 20.4551 93.9307 20.5373 93.6772 20.5878C93.4238 20.6382 93.1733 20.6642 92.9288 20.6642H92.7324C92.6634 20.6642 92.5974 20.6613 92.5359 20.657V20.7608C92.5359 21.0938 92.6184 21.3432 92.7833 21.509C92.9483 21.6747 93.1613 21.7584 93.4238 21.7584C93.6412 21.7584 93.8392 21.7137 94.0177 21.6257C94.1961 21.5378 94.3551 21.4095 94.4946 21.2437L94.6041 21.3158C94.6596 21.3533 94.703 21.3936 94.733 21.4369C94.763 21.4801 94.7795 21.5306 94.7795 21.5897C94.7795 21.6762 94.73 21.767 94.6296 21.8636L94.6266 21.8607ZM92.8433 20.1956C93.0668 20.1956 93.2723 20.174 93.4627 20.1308C93.6517 20.0875 93.8167 20.027 93.9562 19.9491C94.0956 19.8713 94.2051 19.7776 94.2831 19.668C94.3611 19.5584 94.4001 19.433 94.4001 19.2946C94.4001 19.1707 94.3656 19.0654 94.2951 18.9775C94.2246 18.8895 94.0986 18.8449 93.9142 18.8449C93.7462 18.8449 93.5917 18.878 93.4492 18.9458C93.3068 19.0121 93.1793 19.1058 93.0638 19.2269C92.9498 19.348 92.8538 19.4893 92.7744 19.6536C92.6964 19.8179 92.6379 19.9953 92.5989 20.1884C92.6439 20.1942 92.6874 20.1956 92.7279 20.1956H92.8403H92.8433Z" fill="white"/>
<path d="M96.7518 18.8694C96.8912 18.7324 97.0517 18.6041 97.2332 18.4888C97.4147 18.372 97.6111 18.3143 97.8241 18.3143C98.0026 18.3143 98.1495 18.3547 98.2635 18.4369C98.3775 18.519 98.4345 18.6286 98.4345 18.7656C98.4345 18.8549 98.412 18.9299 98.367 18.989C98.322 19.0481 98.2635 19.0986 98.1915 19.1418L98.0581 19.2225C97.9966 19.0942 97.9246 19.0092 97.8451 18.9688C97.7641 18.9285 97.6756 18.9083 97.5811 18.9083C97.4807 18.9083 97.3787 18.9313 97.2752 18.9775C97.1717 19.0236 97.0772 19.0885 96.9902 19.175C96.9032 19.2615 96.8268 19.3638 96.7593 19.4849C96.6918 19.606 96.6453 19.7415 96.6168 19.8929L96.2149 22.175H95.504L96.1564 18.3864C96.2119 18.3763 96.2628 18.3706 96.3063 18.3706C96.6018 18.3706 96.7503 18.5075 96.7503 18.7829V18.8708L96.7518 18.8694Z" fill="white"/>
<path d="M101.623 21.4109C101.617 21.4426 101.612 21.4729 101.611 21.4988C101.608 21.5262 101.606 21.5522 101.606 21.5796C101.606 21.6603 101.623 21.7208 101.656 21.7612C101.689 21.8016 101.75 21.8218 101.84 21.8218C101.885 21.8218 101.938 21.8131 101.999 21.7973L102.058 22.1115C101.99 22.149 101.909 22.1778 101.81 22.1995C101.713 22.2211 101.627 22.2312 101.555 22.2312C101.354 22.2312 101.203 22.1908 101.099 22.1101C100.996 22.0294 100.93 21.8982 100.903 21.7165C100.836 21.7973 100.762 21.8722 100.681 21.9414C100.6 22.0106 100.512 22.0712 100.417 22.1231C100.323 22.1735 100.215 22.2153 100.095 22.247C99.9747 22.2788 99.8397 22.2946 99.6882 22.2946C99.3253 22.2946 99.0583 22.1951 98.8843 21.9962C98.7119 21.7973 98.6249 21.5406 98.6249 21.2235C98.6249 21.0462 98.6414 20.8645 98.6759 20.6771L99.0688 18.385C99.1243 18.3749 99.1753 18.3691 99.2188 18.3691C99.3868 18.3691 99.5067 18.4152 99.5787 18.506C99.6507 18.5969 99.6882 18.7136 99.6882 18.852C99.6882 18.8794 99.6867 18.9111 99.6837 18.9486C99.6807 18.9861 99.6762 19.0178 99.6717 19.0452L99.3868 20.6829C99.3748 20.7478 99.3673 20.8141 99.3613 20.8847C99.3553 20.9539 99.3538 21.0246 99.3538 21.0937C99.3538 21.2927 99.4003 21.4527 99.4917 21.5738C99.5832 21.6949 99.7392 21.7554 99.9567 21.7554C100.074 21.7554 100.191 21.7309 100.308 21.6834C100.425 21.6344 100.531 21.5652 100.626 21.4743C100.72 21.3835 100.803 21.2754 100.873 21.1514C100.942 21.0274 100.991 20.8876 101.02 20.7319L101.422 18.385C101.477 18.3749 101.528 18.3691 101.573 18.3691C101.74 18.3691 101.86 18.4152 101.933 18.506C102.005 18.5969 102.043 18.7122 102.043 18.852C102.043 18.8794 102.043 18.9111 102.038 18.9486C102.034 18.9861 102.031 19.0178 102.026 19.0452L101.624 21.4109H101.623ZM100.777 17.693C100.671 17.7953 100.549 17.8458 100.41 17.8458C100.348 17.8458 100.287 17.8328 100.225 17.8054C100.164 17.778 100.119 17.7521 100.092 17.7247L100.845 16.8237C100.912 16.743 100.981 16.681 101.054 16.6348C101.126 16.5887 101.219 16.5671 101.33 16.5671C101.408 16.5671 101.485 16.5873 101.561 16.6276C101.636 16.668 101.696 16.7098 101.741 16.7516L100.779 17.693H100.777Z" fill="white"/>
<path d="M14.7117 6.95301H8.0813C7.80084 6.95301 7.57138 7.15195 7.57138 7.39558V8.3038H15.2217V7.39558C15.2217 7.15195 14.9922 6.95301 14.7117 6.95301ZM14.7117 6.95301H8.0813C7.80084 6.95301 7.57138 7.15195 7.57138 7.39558V8.3038H15.2217V7.39558C15.2217 7.15195 14.9922 6.95301 14.7117 6.95301ZM6.02512 13.5311C5.79866 13.5311 5.61719 13.3552 5.61719 13.139C5.61719 12.9227 5.80016 12.744 6.02512 12.744H25.1561C25.0466 12.509 24.8891 12.3014 24.6912 12.1313C21.5852 9.87948 20.6538 7.13609 20.6538 4.80356C20.6538 3.92417 20.7873 3.1039 20.9853 2.3903C20.9928 2.31677 20.9973 2.24181 20.9973 2.1654C20.9973 0.970306 19.9894 -0.00134277 18.7431 -0.00134277H8.7232C4.20141 9.88411e-05 0.5 3.43979 0.5 7.64498C0.5 11.8502 4.20141 15.2884 8.7232 15.2884H23.4359C24.4572 15.2884 25.2896 14.5071 25.3181 13.5297H6.02512V13.5311ZM11.3973 1.18366C12.3181 1.18366 13.068 1.88141 13.068 2.73773C13.068 3.59404 12.3166 4.29323 11.3973 4.29323C10.4779 4.29323 9.72504 3.59549 9.72504 2.73773C9.72504 1.87996 10.4764 1.18366 11.3973 1.18366ZM5.5482 6.29851C5.5482 5.59356 6.1961 5.01836 6.98647 5.01836H15.8081C16.5984 5.01836 17.2463 5.59356 17.2463 6.29851V10.6738C17.2463 11.3788 16.5984 11.9569 15.8081 11.9569H15.1902C14.9457 11.9641 14.7447 11.6801 14.9337 11.4393C15.1122 11.226 15.2202 10.9607 15.2202 10.6738V10.2644H7.57288V10.6738C7.57288 10.9593 7.68086 11.2274 7.86683 11.448C8.01231 11.6656 7.90433 11.9569 7.55938 11.9569H6.98497C6.1946 11.9569 5.5467 11.3802 5.5467 10.6738V6.29851H5.5482ZM15.2217 7.39558C15.2217 7.15195 14.9922 6.95301 14.7117 6.95301H8.0813C7.80084 6.95301 7.57138 7.15195 7.57138 7.39558V8.3038H15.2217V7.39558Z" fill="white"/>
<path fill-rule="evenodd" clip-rule="evenodd" d="M34.0781 11.8949C34.0121 11.9583 33.9041 12.039 33.7541 12.1342C33.6041 12.2307 33.4032 12.3259 33.1482 12.421C32.8932 12.5162 32.5873 12.5984 32.2273 12.6676C31.8674 12.7368 31.4565 12.7714 30.9915 12.7714C30.0962 12.7714 29.3223 12.633 28.6699 12.3576C28.0175 12.0808 27.4776 11.6959 27.0532 11.2014C26.6272 10.707 26.3153 10.1231 26.1158 9.44843C25.9163 8.77376 25.8174 8.03277 25.8174 7.22402C25.8174 6.41528 25.9253 5.66996 26.1413 4.98375C26.3573 4.29899 26.6797 3.70648 27.1117 3.20624C27.5421 2.706 28.082 2.31677 28.7284 2.03421C29.3748 1.75309 30.1352 1.61182 31.0095 1.61182C31.4415 1.61182 31.8299 1.6493 32.1794 1.72426C32.5273 1.79923 32.8317 1.88572 33.0912 1.98808C33.3507 2.08899 33.5666 2.19567 33.7376 2.30667C33.9086 2.41768 34.0391 2.51138 34.1275 2.58635C34.228 2.6714 34.312 2.77232 34.384 2.88909C34.456 3.00586 34.492 3.13416 34.492 3.27111C34.492 3.48447 34.4095 3.69639 34.243 3.90975C34.0766 4.12167 33.8951 4.31917 33.6956 4.49937C33.5636 4.37251 33.4137 4.24132 33.2472 4.10869C33.0807 3.97606 32.8962 3.85929 32.6923 3.75838C32.4883 3.65747 32.2558 3.57241 31.9949 3.50321C31.7354 3.43402 31.4445 3.39942 31.1235 3.39942C30.5596 3.39942 30.0872 3.50754 29.7047 3.72667C29.3238 3.94435 29.0164 4.22979 28.7839 4.5801C28.5514 4.93041 28.385 5.33118 28.286 5.78385C28.187 6.23507 28.1375 6.69495 28.1375 7.16347C28.1375 7.66371 28.187 8.14089 28.286 8.59788C28.385 9.05487 28.5574 9.45853 28.8004 9.81028C29.0433 10.1606 29.3613 10.4431 29.7542 10.6551C30.1472 10.8684 30.6361 10.9737 31.2225 10.9737C31.5315 10.9737 31.8164 10.9362 32.0774 10.8627C32.3368 10.7877 32.5663 10.6983 32.7658 10.5916C32.9652 10.485 33.1392 10.374 33.2877 10.2572C33.4377 10.1404 33.5621 10.0395 33.6611 9.95444C33.7271 10.0294 33.8051 10.1188 33.8936 10.2255C33.9821 10.3321 34.0646 10.4431 34.1425 10.5599C34.2205 10.6767 34.2865 10.7935 34.342 10.9102C34.3975 11.027 34.4245 11.1337 34.4245 11.2288C34.4245 11.3672 34.396 11.484 34.342 11.5791C34.2865 11.6743 34.198 11.781 34.0766 11.8977L34.0781 11.8949Z" fill="white"/>
<path fill-rule="evenodd" clip-rule="evenodd" d="M39.7997 8.80113H39.5672C39.4892 8.80113 39.4127 8.8069 39.3347 8.81699C39.0573 8.83861 38.7843 8.87321 38.5129 8.92079C38.2414 8.96836 38.0014 9.04332 37.7915 9.14424C37.5815 9.24515 37.4105 9.38066 37.2771 9.55077C37.1451 9.72088 37.0776 9.93857 37.0776 10.2038C37.0776 10.5008 37.1661 10.7531 37.343 10.9607C37.52 11.1683 37.8185 11.2706 38.2384 11.2706C38.4484 11.2706 38.6478 11.2447 38.8353 11.1913C39.0228 11.138 39.1892 11.0688 39.3332 10.9837C39.4772 10.8987 39.5897 10.8064 39.6737 10.7041C39.7562 10.6032 39.7982 10.5109 39.7982 10.4244V8.79825L39.7997 8.80113ZM41.9233 10.6507C41.9233 11.4797 42.0508 12.0909 42.3043 12.4845C42.1048 12.5594 41.9203 12.6113 41.7493 12.6445C41.5769 12.6762 41.3984 12.6921 41.2109 12.6921C40.8135 12.6921 40.5105 12.6171 40.3066 12.4686C40.1026 12.3201 39.9721 12.1082 39.9166 11.8314C39.6737 12.0765 39.3527 12.2826 38.9553 12.4527C38.5564 12.6229 38.0704 12.7079 37.496 12.7079C37.1976 12.7079 36.8991 12.6675 36.6007 12.5883C36.3022 12.509 36.0307 12.3792 35.7878 12.1976C35.5448 12.0174 35.3454 11.7752 35.1909 11.4724C35.0364 11.1697 34.9584 10.8007 34.9584 10.3638C34.9584 9.8218 35.0934 9.38066 35.3649 9.04044C35.6363 8.70022 35.9753 8.43208 36.3847 8.23458C36.7926 8.03852 37.2366 7.90301 37.712 7.82804C38.1874 7.75308 38.6238 7.70551 39.0228 7.68532C39.1563 7.67523 39.2852 7.66947 39.4127 7.66947H39.7697V7.38258C39.7697 6.97893 39.6557 6.69205 39.4292 6.52194C39.2027 6.35183 38.8338 6.26677 38.3254 6.26677C37.85 6.26677 37.427 6.34174 37.0566 6.49022C36.6861 6.63871 36.3247 6.80882 35.9708 7.00056C35.8163 6.82035 35.6918 6.61997 35.5973 6.40229C35.5028 6.1846 35.4563 6.02314 35.4563 5.91646C35.4563 5.77807 35.5418 5.63679 35.7128 5.49407C35.8838 5.34991 36.1192 5.22304 36.4177 5.1106C36.7161 4.99959 37.0596 4.90877 37.4465 4.83958C37.8335 4.77038 38.2429 4.73578 38.6748 4.73578C39.2717 4.73578 39.7787 4.79344 40.1926 4.91166C40.608 5.02843 40.9455 5.20863 41.2049 5.4537C41.4644 5.69878 41.6504 6.0044 41.7613 6.37057C41.8708 6.73674 41.9278 7.1649 41.9278 7.65361V10.6507H41.9233Z" fill="white"/>
<path fill-rule="evenodd" clip-rule="evenodd" d="M45.6728 2.40756C45.6728 2.74778 45.5543 3.02457 45.3159 3.23649C45.0774 3.44841 44.7939 3.55509 44.4625 3.55509C44.131 3.55509 43.8311 3.44841 43.6001 3.23649C43.3677 3.02313 43.2522 2.74778 43.2522 2.40756C43.2522 2.06734 43.3677 1.78911 43.6001 1.56998C43.8326 1.3523 44.119 1.24274 44.4625 1.24274C44.8059 1.24274 45.0789 1.35086 45.3159 1.56998C45.5543 1.78767 45.6728 2.06734 45.6728 2.40756ZM43.4007 4.95778C43.4007 4.94769 43.4831 4.93327 43.6496 4.91741C43.8161 4.90156 43.9871 4.89435 44.164 4.89435C44.341 4.89435 44.518 4.9102 44.695 4.94192C44.8719 4.97364 45.0324 5.03562 45.1764 5.12501C45.3204 5.21583 45.4358 5.34269 45.5243 5.50703C45.6128 5.67282 45.6578 5.88762 45.6578 6.15288V12.2437V12.6819C45.6578 12.8362 45.6518 12.9933 45.6413 13.1519C45.6083 13.7689 45.4913 14.2706 45.2934 14.6584C45.0939 15.0462 44.8569 15.3461 44.5795 15.5594C44.3035 15.7713 44.0126 15.9184 43.7081 15.9977C43.4037 16.077 43.1307 16.1173 42.8862 16.1173C42.3988 16.1173 42.0839 15.9876 41.9399 15.7266C41.7959 15.4657 41.7239 15.1183 41.7239 14.6829V14.556C42.0659 14.5344 42.3463 14.4868 42.5608 14.4119C42.7768 14.3369 42.9477 14.2317 43.0752 14.0933C43.2027 13.9549 43.2882 13.7848 43.3317 13.583C43.3752 13.3811 43.3977 13.1418 43.3977 12.865V4.95634L43.4007 4.95778Z" fill="white"/>
<path fill-rule="evenodd" clip-rule="evenodd" d="M51.4454 8.80113H51.2129C51.1349 8.80113 51.0584 8.8069 50.9804 8.81699C50.703 8.83861 50.43 8.87321 50.1586 8.92079C49.8871 8.96836 49.6471 9.04332 49.4372 9.14424C49.2272 9.24515 49.0562 9.38066 48.9228 9.55077C48.7908 9.72088 48.7233 9.93857 48.7233 10.2038C48.7233 10.5008 48.8118 10.7531 48.9887 10.9607C49.1657 11.1683 49.4642 11.2706 49.8841 11.2706C50.0941 11.2706 50.2935 11.2447 50.481 11.1913C50.6685 11.138 50.835 11.0688 50.9789 10.9837C51.1229 10.8987 51.2354 10.8064 51.3194 10.7041C51.4019 10.6032 51.4439 10.5109 51.4439 10.4244V8.79825L51.4454 8.80113ZM53.569 10.6507C53.569 11.4797 53.6965 12.0909 53.95 12.4845C53.7505 12.5594 53.566 12.6113 53.3951 12.6445C53.2226 12.6762 53.0441 12.6921 52.8566 12.6921C52.4577 12.6921 52.1562 12.6171 51.9523 12.4686C51.7483 12.3201 51.6178 12.1082 51.5623 11.8314C51.3194 12.0765 50.9984 12.2826 50.601 12.4527C50.2021 12.6229 49.7161 12.7079 49.1417 12.7079C48.8433 12.7079 48.5448 12.6675 48.2464 12.5883C47.9479 12.509 47.6765 12.3792 47.4335 12.1976C47.1905 12.0174 46.9911 11.7752 46.8366 11.4724C46.6821 11.1697 46.6041 10.8007 46.6041 10.3638C46.6041 9.8218 46.7391 9.38066 47.0106 9.04044C47.282 8.70022 47.621 8.43208 48.0304 8.23458C48.4398 8.03852 48.8823 7.90301 49.3577 7.82804C49.8331 7.75308 50.2695 7.70551 50.6685 7.68532C50.802 7.67523 50.9309 7.66947 51.0584 7.66947H51.4154V7.38258C51.4154 6.97893 51.3014 6.69205 51.0749 6.52194C50.8485 6.35183 50.481 6.26677 49.9711 6.26677C49.4957 6.26677 49.0727 6.34174 48.7023 6.49022C48.3319 6.63871 47.9689 6.80882 47.6165 7.00056C47.462 6.82035 47.3375 6.61997 47.243 6.40229C47.1485 6.1846 47.102 6.02314 47.102 5.91646C47.102 5.77807 47.1875 5.63679 47.3585 5.49407C47.5295 5.34991 47.7649 5.22304 48.0634 5.1106C48.3618 4.99959 48.7053 4.90877 49.0922 4.83958C49.4792 4.77038 49.8886 4.73578 50.3205 4.73578C50.9174 4.73578 51.4244 4.79344 51.8383 4.91166C52.2537 5.02843 52.5897 5.20863 52.8506 5.4537C53.1101 5.69878 53.2961 6.0044 53.407 6.37057C53.5165 6.73674 53.572 7.1649 53.572 7.65361V10.6507H53.569Z" fill="white"/>
<path fill-rule="evenodd" clip-rule="evenodd" d="M60.4515 6.15432H64.6314V1.83381L64.9133 1.80209C65.0018 1.792 65.0933 1.78047 65.1878 1.77037C65.2823 1.76028 65.3722 1.75452 65.4607 1.75452C65.6047 1.75452 65.7622 1.77037 65.9332 1.80209C66.1041 1.83381 66.2616 1.89579 66.4056 1.98517C66.5496 2.076 66.668 2.19998 66.7625 2.35999C66.857 2.52001 66.9035 2.73193 66.9035 2.99719V12.5003H64.6314V7.87705H60.4515V12.5003H58.1794V1.83381L58.4778 1.80209C58.5663 1.792 58.6518 1.78047 58.7343 1.77037C58.8168 1.76028 58.8978 1.75452 58.9743 1.75452C59.1407 1.75452 59.3087 1.77037 59.4797 1.80209C59.6507 1.83381 59.8081 1.89579 59.9521 1.98517C60.0961 2.076 60.2146 2.19998 60.309 2.35999C60.4035 2.52001 60.45 2.73193 60.45 2.99719V6.15432H60.4515Z" fill="white"/>
<path fill-rule="evenodd" clip-rule="evenodd" d="M73.2896 4.94192C73.3016 4.94192 73.3901 4.93471 73.5551 4.91741C73.7216 4.90156 73.8806 4.89435 74.0365 4.89435C74.224 4.89435 74.41 4.91597 74.5914 4.95778C74.7744 5.00103 74.9349 5.07023 75.0729 5.16537C75.2108 5.26052 75.3248 5.39171 75.4133 5.55605C75.5018 5.72039 75.5453 5.93087 75.5453 6.18603V12.5003H74.0365C73.7606 12.5003 73.5851 12.4282 73.5146 12.2855C73.4426 12.1413 73.4066 11.9323 73.4066 11.6555C73.2177 11.9006 72.9312 12.1255 72.5443 12.3331C72.1573 12.5407 71.6324 12.6445 70.968 12.6445C70.1821 12.6445 69.6017 12.496 69.2268 12.1976C68.8504 11.9006 68.6074 11.507 68.4964 11.0183C68.4409 10.7733 68.4049 10.508 68.3884 10.2211C68.3719 9.93423 68.3629 9.65312 68.3629 9.37633V4.94336C68.4724 4.94336 68.5564 4.9376 68.6119 4.92751C68.6899 4.91741 68.7694 4.90876 68.8534 4.903C68.9358 4.89723 69.0168 4.89579 69.0933 4.89579C69.5357 4.89579 69.9002 4.98661 70.1881 5.16681C70.4761 5.34846 70.6201 5.67138 70.6201 6.1399V9.28118C70.6201 9.52626 70.6276 9.74682 70.6441 9.94288C70.6606 10.1389 70.7041 10.3091 70.776 10.4532C70.848 10.5959 70.9635 10.7084 71.124 10.7877C71.2845 10.867 71.5079 10.9073 71.7959 10.9073C72.2053 10.9073 72.5563 10.8251 72.8487 10.6608C73.1412 10.4965 73.2881 10.2918 73.2881 10.0467V4.9448L73.2896 4.94192Z" fill="white"/>
<path fill-rule="evenodd" clip-rule="evenodd" d="M81.3343 8.80113H81.1019C81.0239 8.80113 80.9459 8.8069 80.8694 8.81699C80.592 8.83861 80.319 8.87321 80.0475 8.92079C79.7761 8.96836 79.5361 9.04332 79.3262 9.14424C79.1162 9.24515 78.9452 9.38066 78.8117 9.55077C78.6798 9.72088 78.6123 9.93857 78.6123 10.2038C78.6123 10.5008 78.7008 10.7531 78.8777 10.9607C79.0547 11.1683 79.3532 11.2706 79.7731 11.2706C79.9831 11.2706 80.1825 11.2447 80.37 11.1913C80.5575 11.138 80.7239 11.0688 80.8679 10.9837C81.0119 10.8987 81.1244 10.8064 81.2084 10.7041C81.2908 10.6032 81.3328 10.5109 81.3328 10.4244V8.79825L81.3343 8.80113ZM83.458 10.6507C83.458 11.4797 83.5855 12.0909 83.8389 12.4845C83.641 12.5594 83.455 12.6113 83.284 12.6445C83.1116 12.6762 82.9331 12.6921 82.7456 12.6921C82.3467 12.6921 82.0452 12.6171 81.8413 12.4686C81.6373 12.3201 81.5068 12.1082 81.4513 11.8314C81.2084 12.0765 80.8874 12.2826 80.4885 12.4527C80.0895 12.6229 79.6036 12.7079 79.0292 12.7079C78.7308 12.7079 78.4323 12.6675 78.1338 12.5883C77.8354 12.509 77.5639 12.3792 77.321 12.1976C77.078 12.0174 76.8785 11.7752 76.7241 11.4724C76.5696 11.1697 76.4916 10.8007 76.4916 10.3638C76.4916 9.8218 76.6266 9.38066 76.898 9.04044C77.1695 8.70022 77.5084 8.43208 77.9179 8.23458C78.3258 8.03852 78.7697 7.90301 79.2452 7.82804C79.7206 7.75308 80.157 7.70551 80.556 7.68532C80.6894 7.67523 80.8184 7.66947 80.9459 7.66947H81.3028V7.38258C81.3028 6.97893 81.1889 6.69205 80.9624 6.52194C80.7359 6.35183 80.367 6.26677 79.8586 6.26677C79.3832 6.26677 78.9602 6.34174 78.5898 6.49022C78.2193 6.63871 77.8564 6.80882 77.5039 7.00056C77.348 6.82035 77.225 6.61997 77.1305 6.40229C77.036 6.1846 76.9895 6.02314 76.9895 5.91646C76.9895 5.77807 77.075 5.63679 77.246 5.49407C77.417 5.34991 77.6524 5.22304 77.9509 5.1106C78.2493 4.99959 78.5928 4.90877 78.9797 4.83958C79.3667 4.77038 79.7761 4.73578 80.208 4.73578C80.8049 4.73578 81.3118 4.79344 81.7258 4.91166C82.1412 5.02843 82.4787 5.20863 82.7381 5.4537C82.9976 5.69878 83.1835 6.0044 83.2945 6.37057C83.404 6.73674 83.461 7.1649 83.461 7.65361V10.6507H83.458Z" fill="white"/>
<path fill-rule="evenodd" clip-rule="evenodd" d="M87.191 12.5003H84.9188V4.95925L85.1183 4.92754C85.1843 4.91745 85.2623 4.9088 85.3507 4.90447C85.4392 4.8987 85.5442 4.89582 85.6657 4.89582C86.0196 4.89582 86.3256 4.95637 86.5865 5.07891C86.846 5.20144 87.0095 5.41624 87.0755 5.72475C87.2629 5.47968 87.5509 5.25478 87.9378 5.04719C88.3248 4.8396 88.8497 4.73724 89.5141 4.73724C90.3 4.73724 90.8804 4.88573 91.2553 5.18414C91.6302 5.48112 91.8747 5.87468 91.9857 6.36338C92.0412 6.60846 92.0772 6.87372 92.0937 7.1606C92.1102 7.44748 92.1177 7.73004 92.1177 8.00538V12.5018H89.862V8.10053C89.862 7.86699 89.8545 7.64931 89.838 7.44748C89.8215 7.24565 89.7765 7.07266 89.706 6.92994C89.6341 6.78578 89.5171 6.67477 89.3581 6.59548C89.1976 6.5162 88.9742 6.47583 88.6862 6.47583C88.2768 6.47583 87.9258 6.558 87.6334 6.72235C87.3409 6.88669 87.1939 7.0914 87.1939 7.33647V12.5018L87.191 12.5003Z" fill="white"/>
<path fill-rule="evenodd" clip-rule="evenodd" d="M97.5393 11.1293C97.7822 11.1293 98.0042 11.1034 98.2022 11.05C98.4016 10.9967 98.5786 10.9304 98.7331 10.8511C98.8875 10.7718 99.021 10.6868 99.1305 10.5959C99.2415 10.5051 99.324 10.4287 99.3795 10.3653C99.4455 10.4287 99.5129 10.5109 99.5789 10.6118C99.6449 10.7127 99.7064 10.8194 99.7619 10.9304C99.8174 11.0414 99.8609 11.1509 99.8939 11.2576C99.9269 11.3643 99.9434 11.4595 99.9434 11.5445C99.9434 11.6512 99.9209 11.755 99.8774 11.8559C99.8324 11.9568 99.7394 12.0606 99.5954 12.1673C99.3855 12.3158 99.087 12.4542 98.7001 12.5825C98.3131 12.7093 97.8212 12.7742 97.2243 12.7742C96.8254 12.7742 96.3949 12.7209 95.93 12.6142C95.4651 12.5075 95.0347 12.3057 94.6372 12.0087C94.2383 11.7117 93.9068 11.2994 93.6414 10.7732C93.3759 10.2471 93.2439 9.55941 93.2439 8.70885C93.2439 7.8583 93.3819 7.24273 93.6579 6.7324C93.9338 6.22207 94.2773 5.81842 94.6867 5.52C95.0961 5.22303 95.5296 5.01832 95.9885 4.90587C96.4474 4.79487 96.8599 4.73865 97.2243 4.73865C97.6892 4.73865 98.1122 4.78622 98.4931 4.88281C98.874 4.97796 99.192 5.10626 99.447 5.26484C99.6569 5.39314 99.8039 5.51424 99.8864 5.63101C99.9689 5.74778 100.011 5.88617 100.011 6.04619C100.011 6.19468 99.9614 6.37776 99.8624 6.59545C99.7634 6.81313 99.6359 7.01207 99.4814 7.19372C99.3045 7.01352 99.045 6.83331 98.7016 6.65167C98.3581 6.47147 97.9772 6.38065 97.5573 6.38065C96.8269 6.38065 96.308 6.59545 95.9975 7.02649C95.6871 7.45753 95.5326 8.00679 95.5326 8.67714C95.5326 9.01736 95.5656 9.33596 95.6316 9.63437C95.6976 9.93134 95.8115 10.1923 95.972 10.4157C96.1325 10.6392 96.3394 10.8136 96.5944 10.9419C96.8494 11.0702 97.1643 11.1337 97.5393 11.1337V11.1293Z" fill="white"/>
<path fill-rule="evenodd" clip-rule="evenodd" d="M105.071 8.80113H104.839C104.761 8.80113 104.684 8.8069 104.606 8.81699C104.329 8.83861 104.056 8.87321 103.784 8.92079C103.513 8.96836 103.273 9.04332 103.063 9.14424C102.853 9.24515 102.682 9.38066 102.548 9.55077C102.417 9.72088 102.349 9.93857 102.349 10.2038C102.349 10.5008 102.438 10.7531 102.614 10.9607C102.791 11.1683 103.09 11.2706 103.51 11.2706C103.72 11.2706 103.919 11.2447 104.107 11.1913C104.294 11.138 104.461 11.0688 104.605 10.9837C104.749 10.8987 104.861 10.8064 104.945 10.7041C105.028 10.6032 105.07 10.5109 105.07 10.4244V8.79825L105.071 8.80113ZM107.195 10.6507C107.195 11.4797 107.322 12.0909 107.576 12.4845C107.378 12.5594 107.192 12.6113 107.021 12.6445C106.848 12.6762 106.67 12.6921 106.482 12.6921C106.083 12.6921 105.782 12.6171 105.578 12.4686C105.374 12.3201 105.244 12.1082 105.188 11.8314C104.945 12.0765 104.624 12.2826 104.227 12.4527C103.828 12.6229 103.342 12.7079 102.767 12.7079C102.469 12.7079 102.171 12.6675 101.872 12.5883C101.574 12.509 101.302 12.3792 101.059 12.1976C100.816 12.0174 100.617 11.7752 100.462 11.4724C100.308 11.1697 100.23 10.8007 100.23 10.3638C100.23 9.8218 100.365 9.38066 100.636 9.04044C100.908 8.70022 101.247 8.43208 101.656 8.23458C102.066 8.03852 102.508 7.90301 102.983 7.82804C103.459 7.75308 103.895 7.70551 104.294 7.68532C104.428 7.67523 104.557 7.66947 104.684 7.66947H105.041V7.38258C105.041 6.97893 104.927 6.69205 104.701 6.52194C104.474 6.35183 104.107 6.26677 103.597 6.26677C103.121 6.26677 102.698 6.34174 102.328 6.49022C101.958 6.63871 101.595 6.80882 101.242 7.00056C101.086 6.82035 100.963 6.61997 100.869 6.40229C100.774 6.1846 100.728 6.02314 100.728 5.91646C100.728 5.77807 100.813 5.63679 100.984 5.49407C101.155 5.34991 101.391 5.22304 101.689 5.1106C101.988 4.99959 102.331 4.90877 102.718 4.83958C103.105 4.77038 103.514 4.73578 103.945 4.73578C104.542 4.73578 105.049 4.79344 105.463 4.91166C105.878 5.02843 106.214 5.20863 106.475 5.4537C106.734 5.69878 106.92 6.0044 107.031 6.37057C107.141 6.73674 107.196 7.1649 107.196 7.65361V10.6507H107.195Z" fill="white"/>
<path fill-rule="evenodd" clip-rule="evenodd" d="M112.834 13.8078C112.612 14.5099 112.244 15.0692 111.732 15.4902C111.217 15.9097 110.512 16.1202 109.617 16.1202C109.119 16.1202 108.709 16.051 108.389 15.9126C108.068 15.7742 107.907 15.5407 107.907 15.2105C107.907 15.062 107.949 14.8962 108.032 14.716C108.114 14.5344 108.228 14.3326 108.372 14.1106C108.494 14.1956 108.654 14.2706 108.853 14.334C109.053 14.3974 109.263 14.4292 109.483 14.4292C109.825 14.4292 110.107 14.3412 110.329 14.1653C110.55 13.9909 110.737 13.6795 110.893 13.2326L111.175 12.4354C111.175 12.4354 110.292 12.7699 109.972 11.9323C109.816 11.5229 107.592 5.06876 107.592 5.06876C107.759 5.01542 107.96 4.97217 108.198 4.94046C108.435 4.90874 108.654 4.89288 108.853 4.89288C109.162 4.89288 109.437 4.97217 109.675 5.13219C109.912 5.29221 110.082 5.53729 110.181 5.86597L111.675 10.7761L112.901 6.48731C112.967 6.26386 113.042 6.05627 113.125 5.86597C113.207 5.67424 113.309 5.50701 113.432 5.36429C113.554 5.22013 113.704 5.10624 113.881 5.02119C114.058 4.93613 114.274 4.89433 114.527 4.89433C114.737 4.89433 114.926 4.91307 115.091 4.95055C115.257 4.98803 115.422 5.03849 115.589 5.10192L112.835 13.8078H112.834Z" fill="white"/>
<path fill-rule="evenodd" clip-rule="evenodd" d="M121.228 8.70599C121.228 8.4191 121.206 8.13511 121.162 7.85255C121.119 7.57144 121.035 7.32348 120.913 7.11156C120.792 6.89964 120.625 6.72665 120.415 6.59402C120.205 6.46139 119.94 6.39508 119.619 6.39508C119.298 6.39508 119.029 6.46427 118.815 6.60267C118.599 6.74106 118.428 6.91982 118.301 7.13751C118.173 7.35519 118.082 7.60171 118.026 7.8785C117.971 8.15529 117.944 8.4364 117.944 8.72328C117.944 9.01017 117.968 9.29705 118.019 9.58393C118.068 9.87081 118.154 10.1289 118.275 10.3566C118.396 10.5859 118.566 10.7689 118.78 10.9073C118.996 11.0457 119.265 11.1149 119.586 11.1149C119.907 11.1149 120.192 11.0457 120.408 10.9073C120.624 10.7689 120.792 10.5859 120.913 10.3566C121.035 10.1289 121.117 9.87081 121.162 9.58393C121.206 9.29705 121.228 9.0044 121.228 8.70743V8.70599ZM123.5 8.69013C123.5 9.22208 123.431 9.73242 123.293 10.2211C123.155 10.7098 122.929 11.1409 122.614 11.5128C122.299 11.8847 121.892 12.1832 121.395 12.4052C120.897 12.6286 120.294 12.7396 119.586 12.7396C118.878 12.7396 118.278 12.6301 117.786 12.4124C117.294 12.1947 116.894 11.902 116.583 11.5359C116.274 11.1697 116.046 10.7444 115.904 10.26C115.76 9.77711 115.688 9.26822 115.688 8.7377C115.688 8.19565 115.77 7.68244 115.937 7.1995C116.103 6.71656 116.349 6.29128 116.675 5.92367C117 5.5575 117.413 5.26774 117.911 5.05438C118.408 4.84246 118.989 4.73578 119.652 4.73578C120.348 4.73578 120.943 4.84246 121.435 5.05438C121.927 5.26629 122.324 5.55317 122.629 5.91502C122.933 6.27542 123.154 6.69638 123.292 7.17499C123.43 7.65361 123.499 8.15817 123.499 8.69013H123.5Z" fill="white"/>
</g>
<defs>
<clipPath id="clip0_15372_322">
<rect width="123" height="24" fill="white" transform="translate(0.5)"/>
</clipPath>
</defs>
</svg>
