<svg width="24" height="23" viewBox="0 0 24 23" fill="none" xmlns="http://www.w3.org/2000/svg">
<path d="M19.4364 8.71046L11.0713 8.71046C10.0446 8.71046 9.21234 9.54273 9.21234 10.5694L9.21234 18.9345C9.21234 19.9612 10.0446 20.7934 11.0713 20.7934H19.4364C20.4631 20.7934 21.2953 19.9612 21.2953 18.9345V10.5694C21.2953 9.54273 20.4631 8.71046 19.4364 8.71046Z" stroke="#1F3967" stroke-width="2.2462" stroke-linecap="round" stroke-linejoin="round"/>
<path d="M5.49349 14.2869H4.56403C4.07101 14.2869 3.59819 14.0911 3.24957 13.7425C2.90096 13.3938 2.70511 12.921 2.70511 12.428L2.70511 4.06285C2.70511 3.56984 2.90096 3.09701 3.24957 2.7484C3.59819 2.39978 4.07101 2.20393 4.56403 2.20393L12.9292 2.20393C13.4222 2.20393 13.895 2.39978 14.2436 2.7484C14.5922 3.09701 14.7881 3.56984 14.7881 4.06285V4.99232" stroke="#1F3967" stroke-width="2.2462" stroke-linecap="round" stroke-linejoin="round"/>
</svg>
